<?xml version="1.0" encoding="utf-8"?>
<!-- Generator: Adobe Illustrator 19.0.1, SVG Export Plug-In . SVG Version: 6.00 Build 0)  -->
<svg version="1.1" id="Capa_1" xmlns="http://www.w3.org/2000/svg" xmlns:xlink="http://www.w3.org/1999/xlink" x="0px" y="0px"
	 viewBox="271 -199 335 463" style="enable-background:new 271 -199 335 463;" xml:space="preserve">
<style type="text/css">
	.st0{fill:#FFFFFF;}
</style>
<g>
	<path class="st0" d="M582.5-199h-224c-0.1,0-0.2,0-0.3,0c-0.1,0-0.2,0-0.2,0c-0.3,0-0.6,0.1-0.9,0.1c0,0,0,0,0,0
		c-0.3,0.1-0.7,0.2-1,0.3c-0.1,0-0.1,0-0.2,0.1c-0.3,0.1-0.6,0.2-0.9,0.4c0,0,0,0-0.1,0c-0.3,0.2-0.6,0.3-0.8,0.5
		c-0.1,0-0.1,0.1-0.2,0.1c-0.3,0.2-0.5,0.4-0.8,0.7c0,0,0,0,0,0l-80,80c0,0,0,0,0,0c-0.2,0.2-0.4,0.5-0.7,0.8c0,0.1-0.1,0.1-0.1,0.2
		c-0.2,0.3-0.4,0.5-0.5,0.8c0,0,0,0,0,0.1c-0.1,0.3-0.3,0.6-0.4,0.9c0,0.1,0,0.1-0.1,0.2c-0.1,0.3-0.2,0.6-0.3,1c0,0,0,0,0,0
		c-0.1,0.3-0.1,0.6-0.1,0.9c0,0.1,0,0.2,0,0.3c0,0.1,0,0.2,0,0.3v352c0,13,10.5,23.5,23.5,23.5h288c13,0,23.5-10.5,23.5-23.5v-416
		C606-188.5,595.5-199,582.5-199z M351-173.4v45.9c0,4.7-3.8,8.5-8.5,8.5h-45.9L351-173.4z M591,240.5c0,4.7-3.8,8.5-8.5,8.5h-288
		c-4.7,0-8.5-3.8-8.5-8.5V-104h56.5c13,0,23.5-10.5,23.5-23.5V-184h216.5c4.7,0,8.5,3.8,8.5,8.5V240.5z"/>
	<path class="st0" d="M342.5,16h192c4.1,0,7.5-3.4,7.5-7.5S538.6,1,534.5,1h-192c-4.1,0-7.5,3.4-7.5,7.5S338.4,16,342.5,16z"/>
	<path class="st0" d="M342.5,56h192c4.1,0,7.5-3.4,7.5-7.5s-3.4-7.5-7.5-7.5h-192c-4.1,0-7.5,3.4-7.5,7.5S338.4,56,342.5,56z"/>
	<path class="st0" d="M342.5,96h96c4.1,0,7.5-3.4,7.5-7.5s-3.4-7.5-7.5-7.5h-96c-4.1,0-7.5,3.4-7.5,7.5S338.4,96,342.5,96z"/>
	<path class="st0" d="M446,128.5c0-4.1-3.4-7.5-7.5-7.5h-96c-4.1,0-7.5,3.4-7.5,7.5s3.4,7.5,7.5,7.5h96
		C442.6,136,446,132.6,446,128.5z"/>
	<path class="st0" d="M478-69.5c0-4.1-3.4-7.5-7.5-7.5s-7.5,3.4-7.5,7.5c0,14.6,13.6,26.4,32,29v1c0,4.1,3.4,7.5,7.5,7.5
		s7.5-3.4,7.5-7.5v-1c18.4-2.5,32-14.4,32-29s-13.6-26.4-32-29v-28.7c9,1.9,17,7,17,13.7c0,4.1,3.4,7.5,7.5,7.5s7.5-3.4,7.5-7.5
		c0-14.6-13.6-26.4-32-29v-1c0-4.1-3.4-7.5-7.5-7.5s-7.5,3.4-7.5,7.5v1c-18.4,2.5-32,14.4-32,29s13.6,26.4,32,29v28.7
		C486-57.7,478-62.8,478-69.5z M527-69.5c0,6.7-8,11.8-17,13.7v-27.4C519-81.3,527-76.2,527-69.5z M478-113.5c0-6.7,8-11.8,17-13.7
		v27.4C486-101.7,478-106.8,478-113.5z"/>
	<path class="st0" d="M549.3,121.5c-3.6-2-8.2-0.8-10.2,2.8l-15.4,27.3l-2.1-1.6c-1.8-1.4-4.1-1.9-6.3-1.4c-2.2,0.5-4,2-5,4
		l-7.8,15.8l-2.5-2.9c-3.7-4.2-9.1-6.1-14.6-5c-5.5,1.1-9.9,4.9-11.7,10.1l-8.6,24.8l-20.5-25.9c-1.3-1.6-3.1-2.6-5.2-2.8
		c-2-0.2-4.1,0.5-5.6,1.8l-21.7,19c-3.1,2.7-3.4,7.5-0.7,10.6c2.7,3.1,7.5,3.4,10.6,0.7l15.8-13.8l19.6,24.7c2.2,2.8,5.5,4.4,9,4.4
		c0.6,0,1.3-0.1,1.9-0.2c4.1-0.7,7.6-3.6,8.9-7.6l10.7-30.8c0-0.1,0.1-0.3,0.4-0.3c0.3-0.1,0.4,0.1,0.5,0.2l9.9,11.4
		c1.6,1.9,4.1,2.8,6.6,2.5c2.5-0.3,4.6-1.9,5.8-4.1l8.7-17.7l1.7,1.3c1.7,1.3,3.9,1.8,6.1,1.4c2.1-0.4,4-1.8,5-3.7l19.7-34.8
		C554.1,128.1,552.9,123.5,549.3,121.5z"/>
</g>
</svg>
