<?xml version="1.0" encoding="utf-8"?>
<!-- Generator: Adobe Illustrator 19.0.1, SVG Export Plug-In . SVG Version: 6.00 Build 0)  -->
<svg version="1.1" id="Layer_1" xmlns="http://www.w3.org/2000/svg" xmlns:xlink="http://www.w3.org/1999/xlink" x="0px" y="0px"
	 viewBox="123 28 664 438" style="enable-background:new 123 28 664 438;" xml:space="preserve">
<style type="text/css">
	.st0{fill:#FFFFFF;}
	.st1{fill:none;}
</style>
<g>
	<g>
		<path class="st0" d="M666.2,227.8l-13.3-53c3.6-0.8,6.3-4,6.3-7.8v-8.5c0-18.6-15.1-33.7-33.7-33.7h-60.4v-17.6
			c0-9.1-7.4-16.6-16.6-16.6H240.8c-9.1,0-16.6,7.4-16.6,16.6v145.4c0,4.4,3.6,8,8,8c4.4,0,8-3.6,8-8V107.1c0-0.3,0.2-0.5,0.5-0.5
			h307.8c0.3,0,0.5,0.2,0.5,0.5v145.4c0,4.4,3.6,8,8,8s8-3.6,8-8v-9.1h94.6l0,0l0,0c11.6,0,21.5,7.7,24.9,18.2h-24.9
			c-4.4,0-8,3.6-8,8v17.1c0,13.8,11.3,25.1,25.1,25.1h9.1v35.3h-21c-6.9-19.9-25.8-34.2-48-34.2c-22.2,0-41.1,14.3-48,34.2h-3.9
			v-60.4c0-4.4-3.6-8-8-8s-8,3.6-8,8v60.4H382.8c-6.9-19.9-25.8-34.2-48-34.2c-22.2,0-41.1,14.3-48,34.2h-46c-0.3,0-0.5-0.2-0.5-0.5
			V329H275c4.4,0,8-3.6,8-8s-3.6-8-8-8h-77c-4.4,0-8,3.6-8,8s3.6,8,8,8h26.2v17.6c0,9.1,7.4,16.6,16.6,16.6h43.3c0,0.2,0,0.3,0,0.5
			c0,28,22.8,50.8,50.8,50.8s50.8-22.8,50.8-50.8c0-0.2,0-0.4,0-0.5h180.7c0,0.2,0,0.3,0,0.5c0,28,22.8,50.8,50.8,50.8
			s50.8-22.8,50.8-50.8c0-0.2,0-0.4,0-0.5h26c4.4,0,8-3.6,8-8v-85.5C702,248.5,686.4,230.9,666.2,227.8z M565.2,140.8h60.4
			c9.7,0,17.6,7.9,17.6,17.6v0.5h-78V140.8z M565.2,227.4V175h71.2l13.1,52.4H565.2z M334.8,398.4c-19.2,0-34.7-15.6-34.7-34.7
			c0-19.2,15.6-34.7,34.7-34.7c19.1,0,34.7,15.6,34.7,34.7C369.6,382.8,354,398.4,334.8,398.4z M617,398.4
			c-19.2,0-34.7-15.6-34.7-34.7c0-19.2,15.6-34.7,34.7-34.7c19.2,0,34.7,15.6,34.7,34.7C651.8,382.8,636.2,398.4,617,398.4z
			 M686,295.8h-9.1c-5,0-9.1-4.1-9.1-9.1v-9.1H686V295.8z"/>
	</g>
</g>
<g>
	<g>
		<path class="st0" d="M334.8,347.1c-9.1,0-16.6,7.4-16.6,16.6s7.4,16.6,16.6,16.6c9.1,0,16.6-7.4,16.6-16.6S344,347.1,334.8,347.1z
			"/>
	</g>
</g>
<g>
	<g>
		<path class="st0" d="M617,347.1c-9.1,0-16.6,7.4-16.6,16.6s7.4,16.6,16.6,16.6s16.6-7.4,16.6-16.6S626.2,347.1,617,347.1z"/>
	</g>
</g>
<g>
	<g>
		<path class="st0" d="M523,312.9H403.2c-4.4,0-8,3.6-8,8s3.6,8,8,8H523c4.4,0,8-3.6,8-8C531,316.4,527.4,312.9,523,312.9z"/>
	</g>
</g>
<g>
	<g>
		<path class="st0" d="M317.7,278.7H215.1c-4.4,0-8,3.6-8,8c0,4.4,3.6,8,8,8h102.6c4.4,0,8-3.6,8-8S322.2,278.7,317.7,278.7z"/>
	</g>
</g>
<g>
	<g>
		<path class="st0" d="M317.7,158.9h-34.2c-4.4,0-8,3.6-8,8v68.4c0,4.4,3.6,8,8,8s8-3.6,8-8v-26.2h17.6c4.4,0,8-3.6,8-8s-3.6-8-8-8
			h-17.6V175h26.2c4.4,0,8-3.6,8-8C325.7,162.5,322.2,158.9,317.7,158.9z"/>
	</g>
</g>
<g>
	<g>
		<path class="st0" d="M380.8,212.9c8-5.3,13.3-14.3,13.3-24.6c0-16.2-13.2-29.4-29.4-29.4h-21.4c-4.4,0-8,3.6-8,8v68.4
			c0,4.4,3.6,8,8,8s8-3.6,8-8v-17.6h13.3l14.7,22.1c1.6,2.3,4.1,3.6,6.7,3.6c1.5,0,3.1-0.4,4.4-1.3c3.7-2.5,4.7-7.4,2.2-11.1
			L380.8,212.9z M364.8,201.7h-13.4V175h13.4c7.4,0,13.4,6,13.4,13.4S372.1,201.7,364.8,201.7z"/>
	</g>
</g>
<g>
	<g>
		<path class="st0" d="M446,227.3h-26.2v-18.2c0.2,0,0.4,0,0.5,0h17.1c4.4,0,8-3.6,8-8s-3.6-8-8-8h-17.1c-0.2,0-0.4,0-0.5,0V175H446
			c4.4,0,8-3.6,8-8s-3.6-8-8-8h-34.2c-4.4,0-8,3.6-8,8v68.4c0,4.4,3.6,8,8,8H446c4.4,0,8-3.6,8-8S450.4,227.3,446,227.3z"/>
	</g>
</g>
<g>
	<g>
		<path class="st0" d="M505.9,227.3h-26.2v-18.2h9.1c4.4,0,8-3.6,8-8s-3.6-8-8-8h-9.1V175h26.2c4.4,0,8-3.6,8-8s-3.6-8-8-8h-34.2
			c-4.4,0-8,3.6-8,8v68.4c0,4.4,3.6,8,8,8h34.2c4.4,0,8-3.6,8-8S510.3,227.3,505.9,227.3z"/>
	</g>
</g>
<polyline class="st1" points="441.6,90.5 436.3,90.5 353.1,90.5 "/>
</svg>
