<?xml version="1.0" encoding="utf-8"?>
<!-- Generator: Adobe Illustrator 19.0.1, SVG Export Plug-In . SVG Version: 6.00 Build 0)  -->
<svg version="1.1" id="Layer_1" xmlns="http://www.w3.org/2000/svg" xmlns:xlink="http://www.w3.org/1999/xlink" x="0px" y="0px"
	 viewBox="231 -224 512 512" style="enable-background:new 231 -224 512 512;" xml:space="preserve">
<style type="text/css">
	.st0{fill:#FFFFFF;}
</style>
<g>
	<g>
		<path class="st0" d="M683.7,100.9h-77c-4.4,0-8,3.6-8,8s3.6,8,8,8h77c4.4,0,8-3.6,8-8S688.1,100.9,683.7,100.9z"/>
	</g>
</g>
<g>
	<g>
		<path class="st0" d="M666.6,135.1h-59.9c-4.4,0-8,3.6-8,8c0,4.4,3.6,8,8,8h59.9c4.4,0,8-3.6,8-8
			C674.6,138.7,671,135.1,666.6,135.1z"/>
	</g>
</g>
<g>
	<g>
		<path class="st0" d="M578.2,103.3c-3.1-3.1-8.2-3.1-11.3,0l-28.5,28.5l-20-20c-3.1-3.1-8.2-3.1-11.3,0c-3.1,3.1-3.1,8.2,0,11.3
			l25.7,25.7c1.6,1.6,3.6,2.3,5.7,2.3c2.1,0,4.1-0.8,5.7-2.3l34.2-34.2C581.3,111.5,581.3,106.4,578.2,103.3z"/>
	</g>
</g>
<g>
	<g>
		<path class="st0" d="M683.7,15.4h-77c-4.4,0-8,3.6-8,8s3.6,8,8,8h77c4.4,0,8-3.6,8-8S688.1,15.4,683.7,15.4z"/>
	</g>
</g>
<g>
	<g>
		<path class="st0" d="M666.6,49.6h-59.9c-4.4,0-8,3.6-8,8s3.6,8,8,8h59.9c4.4,0,8-3.6,8-8S671,49.6,666.6,49.6z"/>
	</g>
</g>
<g>
	<g>
		<path class="st0" d="M578.2,17.8c-3.1-3.1-8.2-3.1-11.3,0l-28.5,28.5l-20-20c-3.1-3.1-8.2-3.1-11.3,0c-3.1,3.1-3.1,8.2,0,11.3
			l25.7,25.7c1.6,1.6,3.6,2.3,5.7,2.3c2.1,0,4.1-0.8,5.7-2.3l34.2-34.2C581.3,26,581.3,20.9,578.2,17.8z"/>
	</g>
</g>
<g>
	<g>
		<path class="st0" d="M683.7,186.5h-77c-4.4,0-8,3.6-8,8c0,4.4,3.6,8,8,8h77c4.4,0,8-3.6,8-8C691.7,190,688.1,186.5,683.7,186.5z"
			/>
	</g>
</g>
<g>
	<g>
		<path class="st0" d="M666.6,220.7h-59.9c-4.4,0-8,3.6-8,8c0,4.4,3.6,8,8,8h59.9c4.4,0,8-3.6,8-8
			C674.6,224.2,671,220.7,666.6,220.7z"/>
	</g>
</g>
<g>
	<g>
		<path class="st0" d="M578.2,188.8c-3.1-3.1-8.2-3.1-11.3,0l-28.5,28.5l-20-20c-3.1-3.1-8.2-3.1-11.3,0c-3.1,3.1-3.1,8.2,0,11.3
			l25.7,25.7c1.6,1.6,3.6,2.3,5.7,2.3c2.1,0,4.1-0.8,5.7-2.3l34.2-34.2C581.3,197,581.3,191.9,578.2,188.8z"/>
	</g>
</g>
<g>
	<g>
		<path class="st0" d="M492.7-124.8c3.1-3.1,3.1-8.2,0-11.3s-8.2-3.1-11.3,0l-59.9,59.9c-0.1,0.1-0.2,0.2-0.3,0.3
			c-3.4-1.7-7.2-2.6-11.2-2.6c-4,0-7.8,0.9-11.2,2.6l-51.6-51.6c-3.1-3.1-8.2-3.1-11.3,0c-3.1,3.1-3.1,8.2,0,11.3l51.6,51.6
			c-1.7,3.4-2.6,7.2-2.6,11.2c0,13.9,11.3,25.1,25.1,25.1s25.1-11.3,25.1-25.1c0-4-1-7.8-2.6-11.2c0.1-0.1,0.2-0.2,0.3-0.3
			L492.7-124.8z M410-44.4c-5,0-9.1-4.1-9.1-9.1s4.1-9.1,9.1-9.1c5,0,9.1,4.1,9.1,9.1S415-44.4,410-44.4z"/>
	</g>
</g>
<g>
	<g>
		<path class="st0" d="M410-189.8c-4.4,0-8,3.6-8,8v17.1c0,4.4,3.6,8,8,8c4.4,0,8-3.6,8-8v-17.1C418.1-186.2,414.5-189.8,410-189.8z
			"/>
	</g>
</g>
<g>
	<g>
		<path class="st0" d="M410,49.6c-4.4,0-8,3.6-8,8v17.1c0,4.4,3.6,8,8,8c4.4,0,8-3.6,8-8V57.7C418.1,53.2,414.5,49.6,410,49.6z"/>
	</g>
</g>
<g>
	<g>
		<path class="st0" d="M298.9-61.5h-17.1c-4.4,0-8,3.6-8,8s3.6,8,8,8h17.1c4.4,0,8-3.6,8-8S303.3-61.5,298.9-61.5z"/>
	</g>
</g>
<g>
	<g>
		<path class="st0" d="M317.8-116l-14.8-8.6c-3.8-2.2-8.7-0.9-11,2.9c-2.2,3.8-0.9,8.7,2.9,11l14.8,8.6c1.3,0.7,2.6,1.1,4,1.1
			c2.8,0,5.5-1.4,7-4C322.9-108.9,321.6-113.8,317.8-116z"/>
	</g>
</g>
<g>
	<g>
		<path class="st0" d="M478.2-171.5c-3.8-2.2-8.7-0.9-11,2.9l-8.6,14.8c-2.2,3.8-0.9,8.7,2.9,11c1.3,0.7,2.6,1.1,4,1.1
			c2.8,0,5.5-1.4,6.9-4l8.6-14.8C483.3-164.4,482-169.3,478.2-171.5z"/>
	</g>
</g>
<g>
	<g>
		<path class="st0" d="M358.5,35.8c-3.8-2.2-8.7-0.9-11,2.9L339,53.6c-2.2,3.8-0.9,8.7,2.9,11c1.3,0.7,2.6,1.1,4,1.1
			c2.8,0,5.5-1.4,7-4l8.6-14.8C363.6,42.9,362.3,38,358.5,35.8z"/>
	</g>
</g>
<g>
	<g>
		<path class="st0" d="M528.1-121.7c-2.2-3.8-7.1-5.1-11-2.9l-14.8,8.6c-3.8,2.2-5.1,7.1-2.9,11c1.5,2.6,4.2,4,7,4
			c1.4,0,2.7-0.3,4-1.1l14.8-8.6C529-112.9,530.3-117.8,528.1-121.7z"/>
	</g>
</g>
<g>
	<g>
		<path class="st0" d="M320.7-1.9c-2.2-3.8-7.1-5.1-11-2.9L295,3.7c-3.8,2.2-5.1,7.1-2.9,11c1.5,2.6,4.2,4,7,4c1.4,0,2.7-0.3,4-1.1
			L317.8,9C321.6,6.8,322.9,1.9,320.7-1.9z"/>
	</g>
</g>
<g>
	<g>
		<path class="st0" d="M361.4-153.8l-8.6-14.8c-2.2-3.8-7.1-5.1-11-2.9c-3.8,2.2-5.1,7.1-2.9,11l8.6,14.8c1.5,2.6,4.2,4,6.9,4
			c1.4,0,2.7-0.3,4-1.1C362.3-145.1,363.6-150,361.4-153.8z"/>
	</g>
</g>
<g>
	<g>
		<path class="st0" d="M732.1-16.4l-68.4-68.4c-1.5-1.5-3.5-2.3-5.7-2.3h-80.8c-7.4-37-27.1-70.7-55.9-95.5
			C490.4-209.3,450.9-224,410-224c-94,0-170.5,76.5-170.5,170.5S316,117,410,117c17.8,0,35.1-2.7,51.8-8v153.9
			c0,13.8,11.3,25.1,25.1,25.1h222.3c13.9,0,25.1-11.3,25.1-25.1V-10.8C734.4-12.9,733.6-14.9,732.1-16.4z M666-59.8l41,41h-32
			c-5,0-9.1-4.1-9.1-9.1V-59.8z M461.9-62.1V92c-16.6,5.9-34,8.9-51.8,8.9c-85.2,0-154.5-69.3-154.5-154.5S324.9-208,410-208
			c37,0,72.8,13.3,100.8,37.4c25.3,21.8,42.8,51.1,50,83.4H487C473.1-87.2,461.9-75.9,461.9-62.1z M718.4,262.9c0,5-4.1,9.1-9.1,9.1
			H487c-5,0-9.1-4.1-9.1-9.1V-62.1c0-5,4.1-9.1,9.1-9.1h163v43.3c0,13.9,11.3,25.1,25.1,25.1h43.3L718.4,262.9L718.4,262.9z"/>
	</g>
</g>
<g>
	<g>
		<path class="st0" d="M623.8-35.9H512.7c-4.4,0-8,3.6-8,8s3.6,8,8,8h111.2c4.4,0,8-3.6,8-8S628.2-35.9,623.8-35.9z"/>
	</g>
</g>
</svg>
