<?xml version="1.0" encoding="utf-8"?>
<!-- Generator: Adobe Illustrator 19.0.1, SVG Export Plug-In . SVG Version: 6.00 Build 0)  -->
<svg version="1.1" id="Layer_1" xmlns="http://www.w3.org/2000/svg" xmlns:xlink="http://www.w3.org/1999/xlink" x="0px" y="0px"
	 viewBox="231 -224 512 512" style="enable-background:new 231 -224 512 512;" xml:space="preserve">
<style type="text/css">
	.st0{fill:#FFFFFF;}
</style>
<g>
	<g>
		<g>
			<path class="st0" d="M606.5,91.7c0-4.7-3.8-8.5-8.5-8.5h-51.2c-4.7,0-8.5,3.8-8.5,8.5s3.8,8.5,8.5,8.5h51.2
				C602.6,100.3,606.5,96.4,606.5,91.7z"/>
			<path class="st0" d="M572.3-130.1v-42.7c0-4.7-3.8-8.5-8.5-8.5s-8.5,3.8-8.5,8.5v42.7c0,23.5,19.1,42.7,42.7,42.7h76.8V74.7
				c0,4.7,3.8,8.5,8.5,8.5c4.7,0,8.5-3.8,8.5-8.5V-96c0-4.7-3.8-8.5-8.5-8.5h-85.3C583.8-104.5,572.3-116,572.3-130.1z"/>
			<path class="st0" d="M597.9-19.2h-68.3c-4.7,0-8.5,3.8-8.5,8.5s3.8,8.5,8.5,8.5h68.3c4.7,0,8.5-3.8,8.5-8.5
				C606.5-15.4,602.6-19.2,597.9-19.2z"/>
			<path class="st0" d="M504.1-10.7c0-4.7-3.8-8.5-8.5-8.5h-51.2c-4.7,0-8.5,3.8-8.5,8.5s3.8,8.5,8.5,8.5h51.2
				C500.2-2.1,504.1-6,504.1-10.7z"/>
			<path class="st0" d="M444.3,32c-4.7,0-8.5,3.8-8.5,8.5s3.8,8.5,8.5,8.5h17.1c4.7,0,8.5-3.8,8.5-8.5s-3.8-8.5-8.5-8.5L444.3,32
				L444.3,32z"/>
			<path class="st0" d="M444.3-53.3h85.3c4.7,0,8.5-3.8,8.5-8.5s-3.8-8.5-8.5-8.5h-85.3c-4.7,0-8.5,3.8-8.5,8.5
				C435.8-57.2,439.6-53.3,444.3-53.3z"/>
			<path class="st0" d="M495.5,49.1h85.3c4.7,0,8.5-3.8,8.5-8.5s-3.8-8.5-8.5-8.5h-85.3c-4.7,0-8.5,3.8-8.5,8.5
				S490.8,49.1,495.5,49.1z"/>
			<path class="st0" d="M546.7,134.4c-4.7,0-8.5,3.8-8.5,8.5s3.8,8.5,8.5,8.5h17.1c4.7,0,8.5-3.8,8.5-8.5s-3.8-8.5-8.5-8.5H546.7z"
				/>
			<path class="st0" d="M512.6,83.2h-68.3c-4.7,0-8.5,3.8-8.5,8.5s3.8,8.5,8.5,8.5h68.3c4.7,0,8.5-3.8,8.5-8.5
				S517.3,83.2,512.6,83.2z"/>
			<path class="st0" d="M512.6,134.4h-68.3c-4.7,0-8.5,3.8-8.5,8.5s3.8,8.5,8.5,8.5h68.3c4.7,0,8.5-3.8,8.5-8.5
				S517.3,134.4,512.6,134.4z"/>
			<path class="st0" d="M715.8,127.5l-17.1-17.1c-13.1-13.1-33.1-13.1-46.2,0L540.7,222.2c-1.6,1.6-2.5,3.8-2.5,6v51.2
				c0,4.7,3.8,8.5,8.5,8.5h51.2c2.3,0,4.4-0.9,6-2.5l111.8-111.8C729.3,160.1,729.3,141.1,715.8,127.5z M641.5,145.6l13.5,13.5
				l-74.1,74.1l-13.5-13.5L641.5,145.6z M555.3,270.9v-39.1l39.1,39.1H555.3z M606.5,258.9l-13.5-13.5l74.1-74.1l13.5,13.5
				L606.5,258.9z M703.7,161.6l-11,11l-39.1-39.1l11-11c6.7-6.7,15.3-6.8,22.1,0l17.1,17.1C710.6,146.5,710.6,154.7,703.7,161.6z"/>
			<path class="st0" d="M512.6,270.9H290.7c-14.1,0-25.6-11.5-25.6-25.6v-426.7c0-14.1,11.5-25.6,25.6-25.6h269.5l82.8,82.8
				c3.3,3.3,8.7,3.3,12.1,0c3.3-3.3,3.3-8.7,0-12.1l-85.3-85.3c-1.6-1.6-3.8-2.5-6-2.5H290.7c-23.5,0-42.7,19.1-42.7,42.7v426.7
				c0,23.5,19.1,42.7,42.7,42.7h221.9c4.7,0,8.5-3.8,8.5-8.5S517.3,270.9,512.6,270.9z"/>
			<path class="st0" d="M512.6,185.6h-68.3c-4.7,0-8.5,3.8-8.5,8.5s3.8,8.5,8.5,8.5h68.3c4.7,0,8.5-3.8,8.5-8.5
				S517.3,185.6,512.6,185.6z"/>
			<path class="st0" d="M401.7-61.9c0-4.7-3.8-8.5-8.5-8.5h-51.2c-4.7,0-8.5,3.8-8.5,8.5v51.2c0,4.7,3.8,8.5,8.5,8.5h51.2
				c4.7,0,8.5-3.8,8.5-8.5V-61.9z M384.6-19.2h-34.1v-34.1h34.1V-19.2z"/>
			<path class="st0" d="M341.9,202.7h51.2c4.7,0,8.5-3.8,8.5-8.5v-51.2c0-4.7-3.8-8.5-8.5-8.5h-51.2c-4.7,0-8.5,3.8-8.5,8.5v51.2
				C333.4,198.8,337.2,202.7,341.9,202.7z M350.5,151.5h34.1v34.1h-34.1C350.5,185.6,350.5,151.5,350.5,151.5z"/>
			<path class="st0" d="M353,97.8c1.6,1.6,3.8,2.5,6,2.5c0.3,0,0.6,0,0.8,0c2.5-0.2,4.8-1.6,6.3-3.8l34.1-51.2
				c2.6-3.9,1.6-9.2-2.4-11.8c-3.9-2.6-9.2-1.6-11.8,2.4l-28.4,42.5l-9.7-9.7c-3.3-3.3-8.7-3.3-12.1,0c-3.3,3.3-3.3,8.7,0,12.1
				L353,97.8z"/>
		</g>
	</g>
</g>
</svg>
