<?xml version="1.0" encoding="utf-8"?>
<!-- Generator: Adobe Illustrator 19.0.1, SVG Export Plug-In . SVG Version: 6.00 Build 0)  -->
<svg version="1.1" id="Capa_1" xmlns="http://www.w3.org/2000/svg" xmlns:xlink="http://www.w3.org/1999/xlink" x="0px" y="0px"
	 viewBox="-16.2 216.1 340.2 413.5" style="enable-background:new -16.2 216.1 340.2 413.5;" xml:space="preserve">
<style type="text/css">
	.st0{fill:#FFFFFF;}
</style>
<g>
	<path class="st0" d="M261.6,565.4c-0.7-3-2.7-4.5-5.7-4.6c-1.8,0-3.2,0.5-4.2,1.5l5.1,5.1c1.4,1.4,3.4,1.8,5.2,1.2
		C261.9,567.5,261.8,566.4,261.6,565.4z M261.6,565.4c-0.7-3-2.7-4.5-5.7-4.6c-1.8,0-3.2,0.5-4.2,1.5l5.1,5.1
		c1.4,1.4,3.4,1.8,5.2,1.2C261.9,567.5,261.8,566.4,261.6,565.4z M262,578.1c-1.3,0.9-3.1,0.8-4.3-0.4l-8-8c0,0.1,0,0.3,0,0.4
		c0,4.5,0,9.1,0,13.6l1,1c3.1,3.1,7.3,4.4,11.3,3.8C262,585,262,581.6,262,578.1z M279,516.9c-5.2-1.1-10.5-2.2-15.7-3.2h-27.4
		c-2.7,0-4.9,2.2-4.9,5c0,2.7,2.2,4.9,4.9,4.9h1.1v-2.1c3.2,0.7,6.4,1.4,9.8,2.1h48.5c0.1,0,0.3,0,0.4,0
		C290.7,520.5,285.1,518.2,279,516.9z M319.9,567.1c-0.1-8.3-2.1-16.2-5.7-23.2v72.9c0,1.6-1.3,3-3,3h-67.8v-6.4H237v-18.2
		c-1.9-1.1-4.1-1.8-6.5-1.8h-6v9.9h6c1.6,0,3,1.3,3,3v6.5l-9-9v9.4h-4.6l12.5,12.5h77c7.2,0,10.5-3.4,10.6-10.5
		C320,599.1,320,583.1,319.9,567.1z M241.2,327.3c-0.1,0-0.2-0.1-0.6-0.4v-4.5c0-16,0.1-32,0-48c-0.1-12.6-6.3-20.5-18.5-23.6
		c-11-2.8-21.9-5.5-32.9-8.3c-7.6-1.9-15.1-3.8-22.7-5.7c1.8-10.5-1.5-16-12.2-20.7h-6.4c-6.9,2.7-11.9,7-12.4,15
		c-0.1,2,0.2,3.9,0.4,6c-17.7,4.5-35.2,8.9-52.7,13.3c-14,3.5-19.9,11-20,25.3c0,16.3,0,32.5,0,48.8v4.2c-11.8,1.2-18,6.7-18.3,16.2
		c-0.3,8.4-0.3,16.8,0,25.2c0.3,7.9,5.8,14,13.3,15.4c1.5,0.3,3.1,0.3,5,0.5c0,1.6,0,3.1,0,4.5c0,8.4,0,16.8,0.2,25.2
		c0.1,4.6,2.7,7.2,6.4,7.1c3.7-0.1,5.8-2.9,5.7-7.6c-0.1-20.7-0.1-41.3-0.1-62c0-1,0.2-2,0.3-3.5c1.3,1,2.2,1.7,3.1,2.5
		c11,9.3,23.7,14.2,38.1,14.2c22.7,0.1,45.3,0.1,68,0c12.9,0,24.6-4,35-11.8c2.7-2.1,5.2-4.4,8.3-6.9c0.1,1,0.3,1.5,0.2,2
		c-0.2,22.9,0.5,45.9-0.8,68.8c-1.1,18.7-10.3,33.6-27.7,42c-10.9,5.3-22.3,9.3-33.8,13.4c-10,3.5-20.3,3.1-30.2-0.4
		c-10-3.6-19.9-7.6-29.8-11.6c-8.9-3.6-15.9-9.6-21.2-17.6c-1.6-2.4-2.9-5.1-4.6-7.5c-1.9-2.6-4.7-3.1-7.5-1.6
		c-2.8,1.4-3.9,3.9-2.8,7.1c0.3,1,0.8,2,1.3,2.9c7.2,13.3,17.5,23.1,31.7,28.5c3.1,1.2,3.9,2.7,3.8,5.8c-0.2,5.7-0.3,11.5,0,17.2
		c0.2,3.6-0.9,5-4.5,5.7c-24.8,4.5-49.5,9.3-74.2,13.8c-26.2,4.8-44.1,25.8-44.2,52.4c-0.1,15.5,0,30.9,0,46.4
		c0,7.5,3.3,10.8,10.7,10.8c70.8,0,168.7,0,239.5,0v-12.5H75.5v-93.6c10.2-1.9,20.6-3.9,31.3-5.9c5.2,29.3,28.8,40.1,46.5,39.1
		c17.2-1,37.1-12.7,41.6-39.2c1.7,0.3,3.5,0.5,5.3,0.8c2.3,0.4,4.7,0.9,7,1.3c1.5,0.3,3,0.6,4.6,0.9c1.8,0.3,3.5,0.7,5.3,0.9v-12.5
		c-1.7-0.3-3.4-0.6-5.1-0.9c-1.6-0.3-3.2-0.6-4.8-0.9v0c-4-0.8-8-1.5-12.1-2.3c0-7.2,0.2-14-0.1-20.8c-0.2-3.4,1.1-4.7,4.2-6
		c24.9-10.2,38.3-29.3,40.8-55.8c0.9-9.8,0.5-19.7,0.7-29.6c0-1.4,0.1-2.8,0.2-4.1c14.3-2.3,18.3-7,18.3-21.1v-14.4
		C259,334.3,255.9,330.4,241.2,327.3z M63,373.3c-4.5,0.2-6-0.9-6-4.9c-0.1-7.3-0.1-14.6,0-21.9c0.1-4.1,1.3-5.1,6.1-5.2V373.3z
		 M151.4,228.6c1.1-0.2,2.6,1.8,4.9,3.5c-2.3,1.6-3.7,3.3-5,3.2c-1.3-0.1-2.4-2-3.6-3.1C149,230.8,150,228.8,151.4,228.6z
		 M228.3,321.9c0,0.2-0.2,0.5-0.6,1.2h-106c-6.5,0-9.4,1.8-9.3,6.1c0,4.2,3,6.1,9.4,6.1c32,0,64,0,96,0h5.2
		c-10.3,10.8-21.4,18.7-36.2,18.8c-23.9,0.2-47.7,0.3-71.6,0c-14.7-0.2-25.9-7.8-36.4-18.8h7.9c2.3,0,4.5,0.1,6.8,0
		c3.9-0.3,6.5-3,6.4-6.3c-0.1-3.3-2.6-5.6-6.5-5.7c-4.5-0.1-9.1,0-13.6-0.1c-1.3,0-2.6-0.1-4.1-0.2c-0.1-1.3-0.3-2.3-0.3-3.4
		c0-14.8,0-29.6,0-44.4c0-7.8,2.5-10.9,10.3-12.8c18.5-4.5,36.9-9.3,55.5-13.5c9.5-2.2,19.1-1.1,28.5,1.3
		c16.4,4.1,32.8,8.2,49.2,12.3c6.4,1.6,9.3,4.3,9.4,10.6C228.5,289.4,228.3,305.7,228.3,321.9z M37.3,613.4H-3.4
		c-0.2-0.3-0.5-0.5-0.5-0.8c0.1-16.3-0.7-32.6,0.5-48.7c1.3-18.9,14.6-32.2,33.3-35.7c2.3-0.4,4.7-0.8,7.4-1.3V613.4z M62.9,613.3
		H50.1c-0.1-1.1-0.3-2.4-0.3-3.6c0-27,0.1-54,0-81.1c0-3.1,0.8-4.6,4-4.8c2.9-0.2,5.7-1,9-1.6V613.3z M180.6,519
		c-2.9,13.7-18.3,23.2-31.6,21.7c-16.6-1.9-28.8-13.4-29.7-28.8c-0.6-10.4-0.1-20.8-0.1-31.7c10.3,3.9,20.3,7.8,31.4,8.1
		c11.2,0.2,21.5-3,31.6-7.2c0.5,0.2,1.1,0.3,1.6,0.5C182.8,494,183.2,506.8,180.6,519z M246.9,367.1c-0.1,4-1.6,5.1-6.1,4.8v-31.4
		c4.2-0.8,6,0.3,6,4.3C247,352.2,247,359.7,246.9,367.1z M237,570.7v-15.6C233.8,559.5,233.3,565.8,237,570.7z"/>
	<path class="st0" d="M150,457.1c-7.5-2.2-14.8-4-21.9-6.4c-3.9-1.3-5.1-4.8-3.8-8c1.4-3.4,4.8-4.8,8.7-3c11.4,5.3,22.6,5.2,33.9,0
		c3.7-1.7,7.1-0.4,8.5,2.7c1.5,3.3,0.3,6.9-3.8,8.3C164.6,453.1,157.5,454.9,150,457.1z"/>
	<path class="st0" d="M145.8,411.9c0-7.5,0-14.9,0-22.2c0-1.6,0.1-3.2,0.4-4.7c0.7-3,3-4.9,5.8-4.2c2.1,0.5,4.4,2.4,5.4,4.3
		c1,1.9,0.6,4.7,0.6,7.1c0.1,6.5,0.1,13,0,19.6c-0.2,7.5-4.4,12.2-11.4,13c-4.5,0.5-7.7-1.4-8.4-4.9c-0.7-3.8,1.2-6.1,6-7.3
		C144.6,412.3,145,412.1,145.8,411.9z"/>
	<path class="st0" d="M113,392.5c-2.9,0.1-5.4-2.4-5.6-5.6c-0.2-3.3,2.3-6.2,5.3-6.3c2.9-0.1,5.4,2.4,5.6,5.6
		C118.5,389.5,116,392.4,113,392.5z"/>
	<path class="st0" d="M188.8,392.4c-2.9,0-5.3-2.7-5.3-5.9c0-3.3,2.5-6.2,5.6-6.1c2.9,0.1,5.3,2.7,5.3,5.9
		C194.4,389.8,191.9,392.5,188.8,392.4z"/>
	<path class="st0" d="M195,282.8c-0.1-5.5-2.2-7.7-7.8-7.7c-24.2,0-48.5,0-72.7,0c-5.6,0-7.6,2.1-7.7,7.7c-0.1,7.9,0,15.7,0,23.6
		c0,6.4,1.9,8.3,8.4,8.3c12,0,24,0,36,0c12,0,24,0,35.9,0c5.8,0,8-2.1,8-8C195.1,298.8,195.1,290.8,195,282.8z M182.7,302.3h-63.4
		v-14.8h63.4V302.3z"/>
</g>
<g>
	<g>
		<g>
			<path class="st0" d="M300.2,518.7c0,2.6-2,4.7-4.6,4.9c-0.1,0-0.3,0-0.4,0h-59.4c-2.7,0-4.9-2.2-4.9-4.9c0-2.7,2.2-5,4.9-5h59.4
				C298,513.8,300.2,516,300.2,518.7z"/>
		</g>
	</g>
	<g>
		<g>
			<path class="st0" d="M295.3,494.2h-59.4c-2.7,0-4.9,2.2-4.9,4.9c0,2.7,2.2,4.9,4.9,4.9h59.4c2.7,0,4.9-2.2,4.9-4.9
				C300.2,496.4,298,494.2,295.3,494.2z"/>
		</g>
	</g>
	<g>
		<g>
			<path class="st0" d="M274.6,544l-14.2,13.1c-3.6-3.6-6.5-7.4-12.8-7.4c-4.6,0-8.3,2.2-10.6,5.4c-3.2,4.4-3.6,10.7,0,15.6
				c0.4,0.5,0.8,1,1.3,1.5l11.4,11.5l1,1c3.1,3.1,7.3,4.4,11.3,3.8c2.6-0.4,5-1.5,7-3.4l23.5-21.8c2.6-2.4,4.1-5.7,4.2-9.2
				C297.2,542.5,283.2,536,274.6,544z M262.3,577.9c-0.1,0.1-0.2,0.2-0.3,0.3c-1.3,0.9-3.1,0.8-4.3-0.4l-8-8l-4.5-4.5
				c-1.3-1.3-1.3-3.4,0-4.7c1.3-1.3,3.4-1.3,4.7,0l1.8,1.8l5.1,5.1c1.4,1.4,3.4,1.8,5.2,1.2c0.6-0.2,1.2-0.5,1.7-1l17.7-16.4
				c2.2-2,5.6-0.4,5.5,2.5C286.8,555.7,287.7,554.4,262.3,577.9z"/>
		</g>
	</g>
	<g>
		<g>
			<path class="st0" d="M311.2,471.5h-34.1c-2.7,0-5,2.2-5,4.9c0,2.7,2.2,5,5,5h34.1c1.6,0,3,1.3,3,3v132.4c0,1.6-1.3,3-3,3h-67.8
				v-13.5c0-4.7-2.6-8.9-6.4-11.1c-1.9-1.1-4.1-1.8-6.5-1.8H217c0-35.6,0-59.6,0-75.8v-12.5c0-23.6,0-21.3,0.2-21.8
				c0.4-1.1,1.5-1.9,2.8-1.9H254c2.7,0,5-2.2,5-5c0-2.7-2.2-4.9-5-4.9H220c-2.8,0-5.3,0.9-7.4,2.4l-0.6,30.2l-0.2,12.5l-1.7,86.7
				l10,10l12.5,12.5l2.5,2.5c0.5,0.5,1,0.8,1.6,1.1c0.6,0.3,1.3,0.4,1.9,0.4h72.8c7.1,0,12.9-5.8,12.9-12.9V484.4
				C324.1,477.3,318.3,471.5,311.2,471.5z M224.5,603.8l-0.5-0.5h6.5c1.6,0,3,1.3,3,3v6.5L224.5,603.8z"/>
		</g>
	</g>
	<path class="st0" d="M212.5,473.9L210,603.3l-2.9-9.9V484.5c0-1,0.1-1.5,0.1-2.1l-0.1-0.1v-1L212.5,473.9z"/>
	<path d="M207.3,482.4c-0.1,0.6-0.1,1.1-0.1,2.1v-2.1L207.3,482.4z"/>
</g>
</svg>
