<?xml version="1.0" encoding="utf-8"?>
<!-- Generator: Adobe Illustrator 19.0.1, SVG Export Plug-In . SVG Version: 6.00 Build 0)  -->
<svg version="1.1" id="Слой_1" xmlns="http://www.w3.org/2000/svg" xmlns:xlink="http://www.w3.org/1999/xlink" x="0px" y="0px"
	 viewBox="0 0 336.1 409.6" style="enable-background:new 0 0 336.1 409.6;" xml:space="preserve">
<style type="text/css">
	.st0{fill:#FFFFFF;stroke:#FFFFFF;stroke-width:2;stroke-miterlimit:10;}
</style>
<g>
	<path class="st0" d="M170.5,0c10.6,4.6,14,10.2,12.2,20.7c7.5,1.9,15.1,3.8,22.7,5.7c11,2.8,22,5.5,32.9,8.3
		c12.2,3.1,18.4,11,18.5,23.6c0.1,16,0,32,0,48c0,1.6,0,3.2,0,4.5c0.4,0.3,0.5,0.4,0.6,0.4c14.7,3.1,17.8,7,17.8,21.9
		c0,4.8,0,9.6,0,14.4c0,14.1-4,18.8-18.3,21.1c-0.1,1.3-0.2,2.7-0.2,4.1c-0.2,9.9,0.3,19.8-0.7,29.6c-2.5,26.5-15.9,45.5-40.8,55.8
		c-3,1.2-4.3,2.6-4.2,6c0.3,6.8,0.1,13.6,0.1,20.8c8.5,1.6,16.8,3.2,25.2,4.8c19.6,3.7,39.3,7.1,58.9,11.2c23.7,5,40.6,26,40.8,50.2
		c0.2,16,0.1,32,0,48c0,7.2-3.4,10.5-10.6,10.5c-104.9,0-209.9,0-314.8,0c-7.4,0-10.7-3.4-10.7-10.8c0-15.5-0.1-30.9,0-46.4
		c0.1-26.6,18-47.6,44.2-52.4c24.8-4.5,49.5-9.3,74.2-13.8c3.7-0.7,4.7-2.1,4.5-5.7c-0.3-5.7-0.3-11.5,0-17.2
		c0.1-3.1-0.7-4.7-3.8-5.8c-14.1-5.5-24.5-15.3-31.7-28.5c-0.5-0.9-0.9-1.9-1.3-2.9c-1.1-3.1,0.1-5.7,2.8-7.1c2.7-1.4,5.6-1,7.5,1.6
		c1.7,2.4,3,5,4.6,7.5c5.3,7.9,12.3,14,21.2,17.6c9.9,4,19.7,8,29.8,11.6c9.9,3.5,20.2,3.9,30.2,0.4c11.4-4,22.9-8.1,33.8-13.4
		c17.3-8.3,26.6-23.3,27.6-42c1.3-22.9,0.6-45.8,0.8-68.8c0-0.5-0.1-1-0.2-2c-3,2.6-5.6,4.9-8.3,6.9c-10.3,7.8-22,11.8-34.9,11.8
		c-22.7,0.1-45.3,0.1-68,0c-14.4,0-27.1-4.9-38.1-14.2c-0.9-0.8-1.8-1.5-3.1-2.5c-0.1,1.5-0.3,2.5-0.3,3.5c0,20.7,0.1,41.3,0.1,62
		c0,4.7-2,7.5-5.7,7.6c-3.7,0.1-6.3-2.4-6.4-7.1c-0.2-8.4-0.1-16.8-0.2-25.2c0-1.4,0-2.9,0-4.5c-1.9-0.2-3.5-0.2-5-0.5
		c-7.5-1.4-13-7.5-13.3-15.4c-0.3-8.4-0.3-16.8,0-25.2c0.3-9.5,6.5-15,18.3-16.2c0-1.4,0-2.8,0-4.2c0-16.3,0-32.5,0-48.8
		c0-14.3,6-21.8,20-25.3c17.5-4.4,35.1-8.9,52.7-13.3c-0.1-2.1-0.5-4.1-0.4-6.1c0.5-7.9,5.5-12.3,12.4-15C166.2,0,168.3,0,170.5,0z
		 M122.9,297.6c-10.7,2-21.1,4-31.3,5.9c0,31.6,0,62.6,0,93.6c49.8,0,99.3,0,149,0c0-8.3,0-16.3,0-24.3c0-22-0.1-44,0.1-66
		c0-3.2-0.8-4.4-4-4.8c-6.8-1-13.6-2.5-20.4-3.7c-1.7-0.3-3.5-0.5-5.3-0.8c-4.5,26.5-24.4,38.2-41.6,39.2
		C151.8,337.8,128.1,326.9,122.9,297.6z M243.8,107c0.4-0.7,0.6-0.9,0.6-1.2c0-16.3,0.2-32.5-0.1-48.8c-0.1-6.3-3-9-9.4-10.6
		c-16.4-4.1-32.8-8.2-49.2-12.3c-9.4-2.3-19-3.4-28.5-1.3c-18.5,4.2-37,8.9-55.5,13.5c-7.8,1.9-10.3,4.9-10.3,12.8
		c-0.1,14.8,0,29.6,0,44.4c0,1,0.2,2.1,0.3,3.4c1.5,0.1,2.8,0.2,4.1,0.2c4.5,0,9.1-0.1,13.6,0.1c3.9,0.1,6.3,2.4,6.5,5.7
		c0.1,3.4-2.5,6.1-6.4,6.3c-2.3,0.2-4.5,0-6.8,0c-2.4,0-4.8,0-7.9,0c10.5,11,21.7,18.7,36.4,18.8c23.9,0.3,47.7,0.2,71.6,0
		c14.8-0.1,25.9-8,36.2-18.8c-2.3,0-3.7,0-5.2,0c-32,0-64,0-96,0c-6.4,0-9.4-1.9-9.4-6.1c0-4.2,2.8-6.1,9.3-6.1
		c33.9,0,67.7,0,101.6,0C241,107,242.5,107,243.8,107z M265.8,397.3c0-1.6,0-3.1,0-4.5c0-12.9,0-25.9,0-38.8c0-1.6,0.1-3.2,0.4-4.7
		c0.7-3,2.7-4.5,5.7-4.5c3,0,5,1.6,5.7,4.6c0.3,1.4,0.4,2.9,0.4,4.4c0,12.9,0,25.9,0,38.8c0,1.5,0,3.1,0,4.8c15.5,0,30.5,0,45.1,0
		c0-17.7,1.7-35.3-0.4-52.5c-2.7-22.4-21.6-33.5-44.7-34c0,1.3,0,2.6,0,3.9c-0.1,4.5,0,9.1-0.3,13.6c-0.3,3.4-2.5,5.3-5.9,5.3
		c-3.2,0-5.2-1.9-5.8-5c-0.3-1.6-0.3-3.2-0.3-4.8c0-5.2,0-10.3,0-15.6c-4.5-1-8.6-1.8-12.7-2.7c0,30.9,0,61.4,0,91.8
		C257.4,397.3,261.4,397.3,265.8,397.3z M53.5,397.3c0-28.9,0-57.6,0-86.4c-2.7,0.5-5.1,0.8-7.4,1.3c-18.7,3.5-32,16.8-33.3,35.7
		c-1.1,16.2-0.4,32.5-0.5,48.7c0,0.2,0.3,0.4,0.5,0.7C26.2,397.3,39.8,397.3,53.5,397.3z M199.9,265.4c-0.5-0.2-1.1-0.3-1.6-0.5
		c-10.1,4.2-20.5,7.4-31.6,7.2c-11-0.2-21.1-4.1-31.4-8.1c0,11-0.5,21.4,0.1,31.7c0.9,15.4,13.1,26.9,29.7,28.8
		c13.3,1.5,28.8-7.9,31.6-21.7C199.3,290.7,199,277.9,199.9,265.4z M79,306c-3.3,0.6-6.2,1.4-9,1.6c-3.3,0.2-4,1.7-4,4.8
		c0.1,27,0,54,0,81.1c0,1.3,0.2,2.5,0.3,3.6c4.5,0,8.6,0,12.8,0C79,366.8,79,336.8,79,306z M79.1,125.2c-4.8,0.2-6,1.2-6.1,5.2
		c-0.1,7.3-0.1,14.6,0,21.9c0.1,4,1.6,5.1,6,4.9C79.1,146.7,79.1,136.1,79.1,125.2z M257,155.8c4.5,0.3,6-0.8,6.1-4.8
		c0.1-7.5,0.1-14.9,0-22.4c-0.1-3.9-1.9-5-6.1-4.3C257,134.9,257,145.3,257,155.8z M172.5,16c-2.3-1.7-3.8-3.7-4.9-3.5
		c-1.4,0.3-2.5,2.3-3.7,3.5c1.2,1.1,2.3,3,3.6,3.1C168.8,19.2,170.2,17.5,172.5,16z"/>
	<path class="st0" d="M166.2,241c-7.5-2.2-14.8-4-21.9-6.4c-3.9-1.3-5.1-4.8-3.8-8c1.4-3.4,4.8-4.8,8.7-3c11.4,5.3,22.6,5.2,33.9,0
		c3.7-1.7,7.1-0.4,8.5,2.7c1.5,3.3,0.3,6.9-3.8,8.3C180.8,237,173.6,238.8,166.2,241z"/>
	<path class="st0" d="M161.9,195.8c0-7.5,0-14.9,0-22.2c0-1.6,0.1-3.2,0.4-4.7c0.7-3,3-4.9,5.8-4.2c2.1,0.5,4.4,2.4,5.4,4.3
		c1,1.9,0.6,4.7,0.6,7.1c0.1,6.5,0.1,13,0,19.6c-0.2,7.5-4.4,12.2-11.4,13c-4.5,0.5-7.7-1.4-8.4-4.9c-0.7-3.8,1.2-6.1,6-7.3
		C160.8,196.2,161.2,196.1,161.9,195.8z"/>
	<path class="st0" d="M129.2,176.4c-2.9,0.1-5.4-2.4-5.6-5.6c-0.2-3.3,2.3-6.2,5.3-6.3c2.9-0.1,5.4,2.4,5.6,5.6
		C134.6,173.4,132.2,176.3,129.2,176.4z"/>
	<path class="st0" d="M205,176.3c-2.9,0-5.3-2.7-5.3-5.9c0-3.3,2.5-6.2,5.6-6.1c2.9,0.1,5.3,2.7,5.3,5.9
		C210.5,173.7,208.1,176.4,205,176.3z"/>
	<path class="st0" d="M167.3,98.7c-12,0-24,0-35.9,0c-6.5,0-8.4-1.9-8.4-8.3c0-7.9-0.1-15.7,0-23.6c0.1-5.7,2.1-7.7,7.7-7.7
		c24.2,0,48.5,0,72.7,0c5.6,0,7.8,2.1,7.8,7.7c0.1,8,0.1,16,0,24c0,5.8-2.1,7.9-8,7.9C191.2,98.7,179.3,98.7,167.3,98.7z
		 M198.9,71.4c-21.4,0-42.4,0-63.4,0c0,5.1,0,9.9,0,14.8c21.3,0,42.3,0,63.4,0C198.9,81.2,198.9,76.4,198.9,71.4z"/>
</g>
</svg>
