<?xml version="1.0" encoding="utf-8"?>
<!-- Generator: Adobe Illustrator 19.0.1, SVG Export Plug-In . SVG Version: 6.00 Build 0)  -->
<svg version="1.1" id="Слой_1" xmlns="http://www.w3.org/2000/svg" xmlns:xlink="http://www.w3.org/1999/xlink" x="0px" y="0px"
	 viewBox="0 0 409.5 409.6" style="enable-background:new 0 0 409.5 409.6;" xml:space="preserve">
<style type="text/css">
	.st0{fill:#FFFFFF;}
</style>
<g>
	<path class="st0" d="M321.6,0c3.3,0.9,6.7,1.6,9.9,2.7c20.8,7,34.7,26.3,34.9,48.3c0.1,16.5,0.1,33.1,0,49.6c0,2.7,0.8,3.9,3.2,5.1
		c42.9,20.1,53.2,72.8,21.1,107.7c-1.3,1.4-2,3.7-2,5.6c-0.1,26.4-0.1,52.8-0.1,79.2c0,1.5,0.1,2.9-0.2,4.4c-1,6.8-7.7,9.6-13.1,5.3
		c-2.9-2.4-5.5-5.2-8.7-8.2c0,17.2,0,33.6,0,50.7c1.2,0,2.5,0,3.7,0c9.9,0,19.7,0,29.6,0c6.7,0,9.8,3.2,9.6,9.9
		c-0.6,25.8-22.3,47.9-48.3,49.1c-1.5,0.1-2.9,0.1-4.4,0.1c-74.3,0-148.5,0-222.8,0c-24.6,0-44.1-15.3-49.6-38.9
		c-0.8-3.6-1.2-7.4-1.2-11.1c-0.1-48.1,0-96.3-0.1-144.4c0-4.2,1-7.8,5.2-9.4c5.4-2.1,10.6,1.8,10.8,8.1c0.2,6.9,0.1,13.9,0.1,20.8
		c0,41.2,0,82.4,0,123.6c0,15.6,8.6,28.4,21.9,33c22,7.6,43.3-6.6,45.2-29.9c0.7-9.2,2.7-11,11.9-11c16.3,0,32.5,0,48.8,0
		c1.7,0,3.5,0.1,5.1,0.6c3.6,1.1,5.5,3.9,5.4,7.6c-0.1,3.5-1.9,6.1-5.3,7.2c-1.6,0.5-3.4,0.6-5.1,0.6c-13.5,0.1-26.9,0-40.4,0
		c-1.4,0-2.9,0-4.6,0c-1.6,10.1-5.5,19-12.9,27.2c2.1,0,3.3,0,4.4,0c61.1,0,122.1,0,183.2,0c16.8,0,30.7-9.8,35.1-24.5
		c0.2-0.8,0.3-1.5,0.5-2.7c-1.7,0-3.1,0-4.5,0c-26.5,0-53.1,0-79.6,0c-1.1,0-2.1,0-3.2,0c-5.4-0.2-9.1-3.6-8.9-8.2
		c0.1-4.5,3.7-7.7,8.9-7.8c13.5-0.1,26.9,0,40.4-0.1c1.5,0,2.9,0,4.9,0c0-1.6,0-3,0-4.4c0-20,0.1-40,0-60c0-1.4-0.7-3-1.6-4.2
		c-1.8-2.5-3.9-4.7-6.1-7.2c-10.7,10.7-20.5,20.6-30.4,30.5c-0.9,0.9-1.9,1.9-2.9,2.8c-2.6,2.2-5.8,3-8.5,1.2
		c-2.1-1.5-3.9-4.3-4.7-6.8c-0.8-2.8-0.2-6-0.2-9.5c-1.8,0-3.2,0-4.7,0c-23.2,0-46.4,0-69.6,0c-0.9,0-1.9,0-2.8,0
		c-5.7-0.1-9.5-3.4-9.4-8.2c0.1-4.6,3.8-7.8,9.3-7.8c24.7,0,49.3,0,74,0c0.8,0,1.6,0,3,0c0-1.4,0-2.7,0-3.9c0-18,0.1-36-0.1-54
		c0-2-1.2-4.2-2.4-5.9c-3.1-4.6-6.7-8.9-9.8-13.6c-1.3-1.9-2.4-2.7-4.7-2.7c-19.3,0.1-38.7,0-58,0c-1.3,0-2.7,0.1-4-0.1
		c-4.4-0.6-7.5-4-7.4-8.1c0.1-3.9,3.1-7.2,7.3-7.7c2.4-0.3,4.8-0.2,7.2-0.2c15.9,0,31.7,0,47.6,0c1.4,0,2.9,0,4.6,0
		c-3.8-22.5,1-42.5,16.4-59.3c15.3-16.7,34.7-23.5,57.6-21.5c0-1.6,0-2.9,0-4.2c0-14.3,0-28.5,0-42.8c0-21.6-14.9-36.8-36.5-37
		c-23.9-0.2-47.7,0-71.6,0c-50.8,0-101.6,0-152.4,0c-0.9,0-1.8,0-3.3,0c0.8,1.2,1.3,2.1,1.9,2.8c7.1,9,10.7,19.3,10.7,30.7
		c0.1,30.1,0,60.3,0,90.4c0,5.9-3,9.6-7.8,9.7c-5,0.1-8.2-3.6-8.2-9.7c0-25.9,0-51.7,0-77.6c0-1.4,0-2.9,0-4.7c-1.8,0-3.2,0-4.7,0
		c-22.4,0-44.8-0.1-67.2,0.1c-5,0-8.9-1.2-11.3-5.7c0-2.9,0-5.9,0-8.8c0.2-0.6,0.6-1.2,0.7-1.8C4,24.1,13.7,11.7,29.7,4.3
		c4.3-2,9-2.9,13.5-4.3C136,0,228.8,0,321.6,0z M342.2,115.6c-28.4,0.2-51.2,23.2-51,51.6c0.2,28.2,23.2,50.8,51.4,50.7
		c28.2-0.2,51.2-23.3,50.9-51.3C393.2,138.3,370.2,115.4,342.2,115.6z M312.2,282.7c8.1-8.2,15.5-15.6,23-23.1c5.1-5,9-5,14.1,0
		c6.7,6.6,13.4,13.4,20.1,20c0.8,0.8,1.7,1.5,2.9,2.5c0-18.6,0-36.6,0-55.2c-20.2,9.2-40.1,9.3-60.1,0
		C312.2,245.5,312.2,263.6,312.2,282.7z M81.7,41.4C79.4,27.5,65.1,16.1,49.8,16c-15.3-0.1-29.9,11.3-32.3,25.4
		C38.9,41.4,60.3,41.4,81.7,41.4z"/>
	<path class="st0" d="M187.5,300.7c0,16.7-13.9,30.6-30.6,30.4c-16.5-0.1-30.2-14.1-30-30.5c0.1-16.7,13.8-30.3,30.3-30.2
		C173.7,270.5,187.5,284.3,187.5,300.7z M142.9,300.8c0,7.8,6.4,14.3,14.1,14.3c7.9,0.1,14.5-6.5,14.5-14.4
		c0-7.8-6.3-14.2-14.1-14.3C149.4,286.3,142.9,292.9,142.9,300.8z"/>
	<path class="st0" d="M187.5,204.8c0,16.6-13.5,30.3-30.2,30.4c-16.5,0.1-30.3-13.6-30.5-30.1c-0.1-16.7,13.7-30.6,30.4-30.6
		C173.7,174.4,187.5,188.2,187.5,204.8z M171.5,204.8c0-7.8-6.3-14.3-14.1-14.3c-7.9-0.1-14.5,6.5-14.5,14.4
		c0,7.8,6.3,14.2,14.1,14.3C165,219.3,171.5,212.8,171.5,204.8z"/>
	<path class="st0" d="M126.9,108.8c0-16.5,13.6-30.3,30.2-30.4c16.7-0.1,30.6,13.9,30.4,30.5c-0.2,16.7-13.8,30.3-30.4,30.2
		C140.6,139.1,126.9,125.5,126.9,108.8z M171.5,109c0.1-7.8-6.2-14.3-13.9-14.5c-7.9-0.2-14.6,6.2-14.6,14.2
		c-0.1,7.8,6.2,14.3,13.9,14.5C164.8,123.4,171.4,117,171.5,109z"/>
	<path class="st0" d="M250.8,84.8c10.4,0,20.8-0.1,31.1,0c6.6,0.1,10.6,5.2,8.5,10.7c-1.3,3.5-4.2,5.2-7.8,5.2
		c-21.6,0.1-43.1,0.1-64.7,0c-4.9,0-8.3-3.6-8.3-8c0-4.5,3.6-7.9,8.8-7.9C229.2,84.7,240,84.8,250.8,84.8z"/>
	<path class="st0" d="M239.9,132.8c-6.9,0-13.8,0-20.8,0c-5.8,0-9.5-3.2-9.5-8c0-4.7,3.7-8,9.5-8c13.8,0,27.7,0,41.5,0
		c5.8,0,9.5,3.2,9.5,8c0,4.8-3.7,7.9-9.5,8C253.7,132.8,246.8,132.8,239.9,132.8z"/>
	<path class="st0" d="M239.6,228.8c-6.8,0-13.6,0-20.4,0c-5.8,0-9.5-3.2-9.6-7.9c0-4.8,3.7-8,9.5-8c14-0.1,27.9-0.1,41.9,0
		c5.5,0,9.1,3.3,9.2,7.9c0,4.6-3.6,8-9,8.1C254,228.9,246.8,228.8,239.6,228.8z"/>
	<path class="st0" d="M239.8,324.8c-6.9,0-13.8,0.1-20.7,0c-5.7-0.1-9.5-3.4-9.4-8.1c0.1-4.6,3.8-7.8,9.3-7.8
		c14-0.1,27.9-0.1,41.9,0c5.7,0,9.5,3.4,9.4,8.1c-0.1,4.6-3.7,7.8-9.3,7.8C253.9,324.9,246.8,324.8,239.8,324.8z"/>
	<path class="st0" d="M99.1,176.9c-0.1,4.2-3.9,7.9-8.1,7.8c-4.2-0.1-7.9-3.9-7.8-8.1c0.1-4.2,4-7.9,8.1-7.8
		C95.5,168.9,99.2,172.8,99.1,176.9z"/>
	<path class="st0" d="M275.1,358.5c-0.1,4.2-3.9,7.9-8.1,7.8c-4.2,0-7.9-3.9-7.8-8c0.1-4.2,3.9-7.9,8.1-7.8
		C271.5,350.5,275.2,354.3,275.1,358.5z"/>
	<path class="st0" d="M341,170.1c7.4-7.4,14.2-14.4,21-21.2c1.2-1.2,2.5-2.4,4-3.2c3.3-1.8,6.6-1.2,9.1,1.4c2.5,2.5,3.2,5.6,1.6,8.8
		c-0.8,1.5-1.9,2.9-3.2,4.1c-8.3,8.4-16.7,16.8-25.1,25.1c-5.4,5.4-9.2,5.4-14.7,0c-4.4-4.4-8.9-8.8-13.3-13.3
		c-3.9-4-4.1-8.7-0.8-12c3.3-3.3,8.1-3.1,12.1,0.7c1.6,1.5,3,3,4.5,4.5C337.8,166.4,339.2,168,341,170.1z"/>
</g>
</svg>
