<?xml version="1.0" encoding="utf-8"?>
<!-- Generator: Adobe Illustrator 19.0.1, SVG Export Plug-In . SVG Version: 6.00 Build 0)  -->
<svg version="1.1" id="Слой_1" xmlns="http://www.w3.org/2000/svg" xmlns:xlink="http://www.w3.org/1999/xlink" x="0px" y="0px"
	 viewBox="0 0 352.3 409.5" style="enable-background:new 0 0 352.3 409.5;" xml:space="preserve">
<style type="text/css">
	.st0{fill:#FFFFFF;}
</style>
<g>
	<path class="st0" d="M203.3,0c10.2,5,19.8,10.9,27.2,19.8c7.6,9.1,12.9,19.2,15.3,30.8c0.5,2.7,1.5,4.4,4.3,5.8
		c9.6,5,18.8,10.5,28.1,16.1c4.9,3,5.9,7.5,3,12.8c-3.4,6.2-7,12.3-10.2,17.9c6.4,6.1,12.5,12.1,19.4,18.7c4.1-2.4,9.6-5.5,15.1-8.7
		c8.4-4.8,12-3.9,16.9,4.5c4.5,7.8,9.1,15.7,13.6,23.5c3.8,6.7,2.6,11-4.1,14.9c-5.1,3-10.2,5.8-15.2,8.8c-0.9,0.6-2.1,2.1-1.9,2.9
		c2.1,8,4.4,15.8,6.7,24c6.7,0,13.5-0.1,20.3,0c7.5,0.1,10.5,3.1,10.5,10.4c0,9.9,0.1,19.7,0,29.6c0,7-3.2,10.2-10.3,10.4
		c-6,0.1-12,0.1-18,0c-2.3-0.1-3.3,0.6-3.8,2.9c-1.6,6.6-3.3,13.2-5.2,19.7c-0.7,2.3-0.2,3.3,1.8,4.4c5.4,2.9,10.7,6,15.9,9.2
		c5.6,3.4,6.8,7.8,3.6,13.5c-5,8.8-10,17.6-15.2,26.3c-3.4,5.8-7.9,6.9-13.8,3.6c-6-3.4-12-6.9-17.3-9.9
		c-6.3,6.4-12.4,12.5-18.9,19.1c2.7,4.7,6,10.5,9.3,16.2c4.1,7.2,3.1,11.3-4.1,15.5c-8.2,4.7-16.3,9.5-24.6,14.2
		c-6.5,3.7-10.8,2.5-14.6-4c-3.4-5.7-6.7-11.5-10-17.3c-8.2,2.1-16.3,4-24.3,6.3c-0.7,0.2-1.3,2.1-1.4,3.2c-0.1,5.9,0,11.7-0.1,17.6
		c-0.1,7.4-3.1,10.5-10.4,10.5c-9.7,0.1-19.5,0.1-29.2,0c-7.6-0.1-10.5-3.1-10.6-10.8c-0.1-5.7,0-11.5,0-17.2c0-1.9-0.1-3.2-2.5-3.7
		c-7.6-1.7-15.2-3.8-23.3-5.8c-3.1,5.3-6.3,10.9-9.6,16.5c-4.3,7.4-8.3,8.5-15.8,4.2c-8.1-4.7-16.2-9.3-24.2-14
		c-6.5-3.8-7.7-8.1-4-14.6c3.3-5.8,6.6-11.5,10.1-17.5c-3.3-3-6.6-5.9-9.7-9c-3.1-3.1-6-6.4-9.2-9.8c-5.8,3.3-11.4,6.6-17.1,9.9
		c-6.9,4-11.2,2.8-15.2-4.1c-4.6-7.8-9.1-15.7-13.6-23.5c-4.6-7.9-3.5-11.8,4.3-16.3c5.3-3.1,10.6-6.2,16.2-9.4
		c-1.6-5.7-3.2-11.4-4.6-17.2c-2-8.5-2-8.6-10.8-8.6c-3.9,0-7.7,0.1-11.6,0C3.3,242.1,0,238.8,0,231.9c0-10,0-20,0-30
		c0.1-6.9,3.1-10,10.1-10.1c5.9-0.1,11.7,0.1,17.6-0.1c1.2,0,3.1-0.9,3.4-1.7c2.2-7.9,4.1-15.9,6.2-24.2c-5.6-3.2-11.4-6.5-17.1-9.9
		c-6.3-3.7-7.5-8.1-4-14.3c4.9-8.6,9.8-17.1,14.8-25.6c3.6-6.1,7.9-7.3,14.1-3.9c5.9,3.3,11.8,6.8,16.8,9.7
		c6.5-6.5,12.6-12.7,19.2-19.3c-2.7-4.6-5.9-10.2-9.1-15.9c-4-7-2.9-11.2,4-15.2c8.5-4.9,16.8-10.5,25.8-14.4c5.1-2.2,6.7-5.1,8-10
		c6-21.6,19.6-36.8,40-46.1c0.6-0.3,1.2-0.6,1.8-0.9c1.3,0,2.7,0,4,0c5,2.1,6.5,6,6.4,11.2c-0.2,15.7-0.1,31.4,0,47.2
		c0,1.8,0.3,3.7,1.1,5.3c1.7,3.4,3.6,6.8,5.8,10c0.8,1.1,2.5,1.9,4,2.2c1.6,0.4,3.5-0.2,5.2,0.1c5.1,1,7.6-1.5,10.2-5.8
		c3.6-6,5.1-11.9,4.9-18.8c-0.4-13.6,0-27.2-0.2-40.8c-0.1-5.2,1.8-8.7,6.6-10.7C200.7,0,202,0,203.3,0z M220.8,120.9
		c2.1,1.2,3.7,2.1,5.3,3c25.4,13.7,42.2,34.5,51.1,61.9c1.4,4.4,2.3,9,3,13.6c0.5,3.2-1.5,5.4-4.5,6.1c-2.9,0.7-5.3-0.6-6.5-3.4
		c-0.6-1.2-0.8-2.5-1.1-3.8c-5.7-26-19.8-46.3-42.1-60.7c-5.6-3.6-11.9-6.2-18.4-9.5c0,59.8,0,118.4,0,177.2c1-0.3,1.8-0.5,2.5-0.8
		c18.4-7.2,33.2-19,44.2-35.5c8.4-12.5,13.2-26.3,15.2-41.2c0.6-4.2,3.4-6.4,6.6-6c3.6,0.5,5.8,3.4,5,7.7c-1.4,7.4-2.5,15-5,22.2
		c-17.5,50-68.5,79.5-120.4,69c-40.1-8.1-67.3-32.4-79.8-71c-13.6-42-3.3-79.1,28.1-110.1c8.2-8.1,17.9-14.1,28.3-19
		c-0.2-0.5-0.2-0.8-0.4-1c-0.2-0.3-0.5-0.6-0.8-0.9c-14.1-12.2-21.7-27.7-23.9-46c-0.2-1.5-1-2.8-1.7-4.6
		c-7.8,4.5-15.2,8.8-22.9,13.3c3.4,5.9,6.6,11.5,9.8,17.2c3.4,6,2.6,9.3-2.4,14c-6.2,5.8-12.3,11.8-18.1,18
		c-5.1,5.4-8.3,6.2-14.7,2.6c-5.5-3.1-11-6.3-16.8-9.6c-4.5,7.7-8.7,15.1-13.2,22.7c5.7,3.3,11.2,6.5,16.7,9.7
		c6.4,3.8,7.3,6.7,5.1,13.9c-2.4,7.7-4.6,15.6-6.4,23.5c-1.9,8.5-4,10.6-12.6,10.6c-6,0-11.9,0-18,0c0,8.9,0,17.4,0,26.3
		c6.7,0,13.2,0,19.7,0c6.5,0.1,9.1,2.5,10.5,8.6c2,8.5,4.2,17,6.7,25.4c2.1,6.9,1.2,10-5,13.6c-5.5,3.2-11,6.4-16.8,9.8
		c4.4,7.7,8.7,15.1,13.1,22.8c5.8-3.3,11.3-6.5,16.9-9.7c6.3-3.6,9.3-3,14.3,2.3c6,6.3,12.1,12.4,18.4,18.3c5.1,4.8,5.8,8,2.4,14
		c-3.2,5.6-6.5,11.3-9.8,17.1c7.7,4.4,15.2,8.7,22.6,13c0.4-0.4,0.6-0.6,0.8-0.8c2.9-5.1,5.9-10.1,8.8-15.2
		c4.2-7.3,6.9-8.1,14.7-5.6c7.7,2.4,15.6,4.5,23.5,6.3c7.8,1.7,9.9,4,10,11.8c0,6.2,0,12.4,0,18.9c8.9,0,17.4,0,26.3,0
		c0-6.9-0.1-13.5,0-20.2c0.1-6.4,2.6-8.9,8.8-10.4c8.4-2,16.8-4.2,25-6.7c7.2-2.2,10.1-1.3,13.9,5.2c3.3,5.6,6.5,11.2,9.9,16.9
		c4-2.3,7.7-4.4,11.4-6.5c3.8-2.2,7.5-4.4,11.4-6.6c-3.5-6.1-6.8-11.7-10.1-17.3c-3.4-5.9-2.6-9.4,2.3-14.1
		c6.3-6,12.4-12.1,18.3-18.4c4.7-5,8.1-5.8,14.1-2.3c5.8,3.3,11.5,6.6,17.4,10c2.3-3.9,4.4-7.6,6.6-11.3c2.2-3.8,4.3-7.6,6.6-11.5
		c-5.8-3.4-11.3-6.6-16.9-9.8c-6.7-3.9-7.6-6.9-5.4-14.2c2.4-7.9,4.5-15.9,6.3-23.9c1.7-7.3,4-9.5,11.4-9.5c6.5,0,13,0,19.6,0
		c0-9,0-17.6,0-26.1c-0.6-0.1-0.8-0.2-1.1-0.2c-6,0-12,0-18,0c-7.6,0-10.2-2.4-11.8-9.6c-1.8-8-3.9-16-6.3-23.9
		c-2.2-7.3-1.3-10.5,5.2-14.3c5.6-3.3,11.3-6.5,17-9.8c-4.5-7.8-8.8-15.2-13.2-22.8c-6.1,3.5-11.7,6.8-17.4,10
		c-6.1,3.5-9.2,2.7-14-2.4c-5.6-5.9-11.2-11.8-17.2-17.3c-6.6-6.1-7.2-8.7-2.7-16.5c3-5.3,6-10.5,9.2-16c-7.5-4.3-14.6-8.4-22-12.7
		C246,90,237.3,107.1,220.8,120.9z M144.8,129c-31.2,9.3-62.9,43.4-62.4,89c0.5,47.6,35.7,79.5,62.4,86.8
		C144.8,246.2,144.8,187.6,144.8,129z M204.8,14.5c0,1.9,0,3.4,0,4.8c0,13.5,0.1,26.9-0.1,40.4c0,2.7-0.6,5.7-1.7,8.1
		c-2.5,5-5.5,9.7-8.3,14.6c-2.3,3.9-5.8,5.7-10.3,5.7c-4.7,0-9.3,0-14,0c-5,0-8.7-2.1-11.2-6.4c-2.3-3.9-4.9-7.7-6.7-11.8
		c-1.5-3.3-2.7-7-2.8-10.6c-0.3-13.6-0.1-27.2-0.1-40.8c0-1.2,0-2.4,0-4c-23.6,12.3-35.3,39.4-28.9,65.7c6,24.6,30,43.9,54.6,43.8
		c27.9,0,51.9-17.8,58.1-43C240.1,54,228.7,27,204.8,14.5z M195.2,309c0-58.7,0-116.8,0-175.1c-3.2,0.5-6.1,1.2-9.1,1.4
		c-3,0.2-4,1.4-4,4.5c0.2,18.3,0.1,36.5,0.1,54.8c0,1.7,0.1,3.5-0.1,5.2c-0.3,3.5-2.2,5.7-5.8,5.9c-3.2,0.2-5.5-2.1-6-5.7
		c-0.2-1.3-0.1-2.7-0.1-4c0-18.8,0-37.6-0.1-56.4c0-1.4-0.9-3.7-1.9-4c-3.5-1.1-7.2-1.5-11-2.2c0,58.6,0,116.9,0,175.6
		c4.3,0.6,8.4,1.1,13,1.7c0-2.3,0-3.8,0-5.4c0-24.7,0-49.3,0-74c0-6.5,1.9-9.5,5.9-9.5c4.1,0,6.1,3,6.1,9.4c0,24.8,0,49.6,0,74.4
		c0,1.5,0,3.1,0,5.2C186.9,310.1,190.9,309.6,195.2,309z"/>
	<path class="st0" d="M0,369.8c0-10.5,0-21.1,0-31.6c0-5,2.3-7.8,6-7.7c3.7,0.1,5.9,2.8,5.9,7.6c0,21.3,0,42.7,0,64
		c0,4.7-2.3,7.5-6,7.5c-3.7,0.1-6-2.8-6-7.8C0,391.1,0,380.4,0,369.8z"/>
	<path class="st0" d="M352.3,370.2c0,10.5,0,21.1,0,31.6c0,5-2.3,7.8-6.1,7.7c-3.6-0.1-5.9-2.9-5.9-7.6c0-21.3,0-42.7,0-64
		c0-4.7,2.3-7.5,6-7.5c3.7,0,6,2.7,6,7.4C352.3,348.6,352.3,359.4,352.3,370.2z"/>
	<path class="st0" d="M61.6,396.7c0,2.4,0.2,4.8,0,7.2c-0.4,3.4-3,5.8-6.1,5.6c-3.2-0.1-5.6-2.5-5.7-6c-0.2-4.5-0.2-9.1,0-13.6
		c0.1-3.6,2.5-5.9,5.7-6c3.4-0.1,5.9,2.2,6.2,6C61.8,392.2,61.7,394.4,61.6,396.7C61.7,396.7,61.6,396.7,61.6,396.7z"/>
	<path class="st0" d="M302.5,397c0,2.3,0.1,4.5,0,6.8c-0.2,3.4-2.2,5.5-5.5,5.7c-3.4,0.2-5.9-1.7-6.1-5c-0.4-5.2-0.4-10.4,0-15.5
		c0.3-3.3,2.7-5.2,6.2-4.9c3.3,0.2,5.1,2.2,5.4,5.4C302.7,391.9,302.5,394.4,302.5,397C302.5,397,302.5,397,302.5,397z"/>
</g>
</svg>
