<?xml version="1.0" encoding="utf-8"?>
<!-- Generator: Adobe Illustrator 19.0.1, SVG Export Plug-In . SVG Version: 6.00 Build 0)  -->
<svg version="1.1" id="Слой_1" xmlns="http://www.w3.org/2000/svg" xmlns:xlink="http://www.w3.org/1999/xlink" x="0px" y="0px"
	 viewBox="0 0 194.1 217.3" style="enable-background:new 0 0 194.1 217.3;" xml:space="preserve">
<style type="text/css">
	.st0{fill:#FFFFFF;}
</style>
<g>
	<path class="st0" d="M191.2,0c2.4,1,2.9,3,2.9,5.3c0,28.1,0,56.3,0,84.4c0,40.5,0,81,0,121.6c0,1-0.1,2-0.2,2.9
		c-0.3,1.8-1.5,2.7-3.2,2.9c-0.8,0.1-1.6,0.1-2.3,0.1c-54.7,0-109.3,0-164,0c-4.7,0-5.7-1-5.7-5.7c0-14.4,0-28.7,0-43.1
		c0-1.5-0.4-2.5-1.5-3.5c-4.4-4.3-8.7-8.7-13.1-13c-2.6-2.6-2.6-4.3,0-6.9c0.9-0.9,1.9-1.7,3.3-2.9c-2-1.8-3.7-3.3-5.3-4.8
		c-2.9-2.9-2.9-4.6-0.1-7.5c3.6-3.7,7.3-7.3,11-10.9c2.2-2.2,2.4-2.3,5.5-2.3c0-0.6,0.1-1.2,0.1-1.8c0-36.4,0-72.8,0-109.2
		c0-2.4,0.2-4.6,2.8-5.6C78.1,0,134.7,0,191.2,0z M186.5,7.5c-53.6,0-106.9,0-160.3,0c0,0.7-0.1,1.1-0.1,1.6
		c0,37.8,0,75.7,0.1,113.5c0,1,0.6,2.2,1.3,2.9c8.1,8.3,16.4,16.4,24.6,24.6c7.9,7.9,15.8,15.8,23.7,23.7c2.6,2.6,2.6,4.4,0,7
		c-1,1-2.1,1.8-3.6,3.1c1.9,1.7,3.5,3,5,4.5c1.9,1.9,2,4.1,0.4,5.6c-1.6,1.6-3.6,1.5-5.6-0.5c-1.5-1.4-2.8-2.9-4.6-4.7
		c-1,1.2-1.7,2.2-2.6,3.1c-3,3.1-4.6,3.1-7.6,0.1c-9.6-9.6-19.2-19.2-28.8-28.8c-0.5-0.5-1.1-1-1.9-1.7c0,16.3,0,32.2,0,48.2
		c53.4,0,106.8,0,160.3,0C186.5,142.3,186.5,75,186.5,7.5z M34.5,158.9c2.5-2.6,5.1-5.2,7.5-7.6c-5.4-5.5-11-11.1-16.3-16.4
		c-2.5,2.5-5.2,5.1-7.6,7.5C23.5,147.8,29.1,153.4,34.5,158.9z M49.6,173.9c3.7,3.8,7.4,7.6,10.9,11.1c2.6-2.6,5.2-5.2,7.8-7.8
		c-3.6-3.6-7.4-7.3-11.1-10.9C54.8,168.7,52.2,171.3,49.6,173.9z M48,156.7c-2.7,2.8-5.3,5.4-7.9,8c1.2,1.2,2.6,2.5,3.8,3.6
		c2.6-2.6,5.2-5.2,7.8-7.9C50.6,159.3,49.3,157.9,48,156.7z M9.5,133.4c0.9,1.2,1.9,2.4,2.5,3.1c2.7-2.7,5.4-5.3,7.8-7.7
		c-0.8-0.9-1.8-1.9-2.8-2.9C14.4,128.4,11.8,131,9.5,133.4z M18.4,155.3c0.1,0,0.3-0.1,0.4-0.1c-0.2-0.6-0.3-1.4-0.7-1.8
		c-1.7-1.8-3.4-3.6-5.2-5.3c-0.3-0.2-1,0-1.5,0C13.9,150.7,16.2,153,18.4,155.3z"/>
	<path class="st0" d="M154.3,180.6c-2.1,1.7-4,3.8-6.3,5c-6,3.2-13.8-1.4-14.9-8.5c-0.6-3.8,0.5-7.1,2.1-10.4c1.4-3,3-5.9,4.3-9
		c0.9-2.1-0.2-3.8-2.5-3.9c-1.5,0-3.2,0.2-4.5,0.9c-3.8,2.1-7.6,4.3-11.1,6.9c-6.1,4.6-11.3,10-15.8,16.2c-0.9,1.3-1.6,2.7-2.3,4
		c-1.1,1.9-2.8,2.6-4.6,1.8c-1.9-0.8-2.9-2.7-2-4.7c1.2-2.6,2.7-5.2,4.4-7.4c6.5-8.3,14.1-15.4,23.1-21c3.5-2.2,7.3-3.8,11.4-4.2
		c6.5-0.6,14.2,5,10.8,14c-1.2,3.3-3.1,6.4-4.6,9.5c-0.6,1.2-1.1,2.5-1.4,3.8c-0.6,2,0.5,4.3,2.3,5.2c1.5,0.8,2.8,0.1,3.5-1
		c1.8-2.7,3.5-5.6,5-8.5c1-2,1.5-4.3,4.2-4.3c2.8,0,3.5,2.2,4.4,4.2c0.5,1.2,0.9,2.5,1.6,4.2c0.9-2,1.6-3.7,2.3-5.5
		c1.6-3.9,4.2-4.6,7.3-1.8c3.1,2.7,5.6,5.8,6.3,10c0.6,3.9-0.8,6.9-3.5,9.5c-1.4,1.3-3.5,1.3-4.8,0c-1.4-1.3-1.7-3.3-0.4-5
		c1.5-1.9,2-3.7,0.6-5.5c-2.1,2.8-4.1,5.7-6.3,8.3c-0.9,1-2.1,2-3.4,2.4c-1.3,0.4-2.9,0.3-4.1-0.3c-1.5-0.7-1.7-2.3-1.3-3.9
		C154.2,181.5,154.2,180.9,154.3,180.6z"/>
	<path class="st0" d="M106.5,72.2c-19,0-37.9,0-56.9,0c-0.8,0-1.6,0-2.3-0.1c-2.1-0.2-3.4-1.7-3.4-3.7c0-1.9,1.3-3.3,3.3-3.5
		c0.7-0.1,1.4-0.1,2.1-0.1c38,0,76.1,0,114.1,0c3.7,0,5.3,1.1,5.4,3.6c0,2.5-1.6,3.7-5.3,3.7C144.5,72.2,125.5,72.2,106.5,72.2z"/>
	<path class="st0" d="M106.4,30.4c18.9,0,37.8,0,56.6,0c0.9,0,1.8,0,2.7,0.1c1.9,0.3,2.9,1.4,3.1,3.2c0.2,2-0.8,3.3-2.7,3.8
		c-0.7,0.2-1.4,0.2-2.1,0.2c-37.9,0-75.8,0-113.7,0c-1.1,0-2.3,0-3.4-0.2c-2-0.3-3.1-1.9-3-3.8c0.2-1.9,1.3-3.1,3.2-3.3
		c0.8-0.1,1.7-0.1,2.5-0.1C68.6,30.4,87.5,30.4,106.4,30.4z"/>
	<path class="st0" d="M91.4,124c-14,0-28,0-42,0c-0.7,0-1.4,0-2.1,0c-2-0.2-3.3-1.6-3.3-3.5c0-1.9,1.2-3.4,3.1-3.7
		c0.8-0.1,1.6-0.1,2.3-0.1c28.1,0,56.2,0,84.2,0c0.8,0,1.7,0,2.5,0.1c1.8,0.3,3,1.9,2.9,3.6c0,1.8-1.3,3.2-3.1,3.5
		c-0.8,0.1-1.6,0.1-2.3,0.1C119.5,124,105.5,124,91.4,124z"/>
	<path class="st0" d="M87.2,89.5c-12.7,0-25.4,0-38.2,0c-1,0-2-0.1-2.9-0.4c-1.6-0.6-2.4-1.9-2.2-3.7c0.2-1.6,1.1-2.8,2.7-3.1
		c0.9-0.2,1.8-0.2,2.7-0.2c25.2,0,50.3,0,75.5,0c1,0,2,0,2.9,0.2c1.7,0.3,2.7,1.5,2.8,3.3c0.1,1.7-0.7,3.1-2.3,3.6
		c-0.9,0.3-1.9,0.3-2.9,0.3C112.7,89.5,99.9,89.5,87.2,89.5z"/>
	<path class="st0" d="M132.2,106.8c-10.3,0-20.6,0-30.9,0c-3.6,0-5.4-1.2-5.4-3.6c-0.1-2.5,1.8-3.8,5.5-3.8c20.8,0,41.5,0,62.3,0
		c0.9,0,1.9,0.1,2.7,0.3c1.7,0.5,2.5,1.8,2.4,3.5c-0.1,1.7-1,2.9-2.7,3.3c-0.8,0.2-1.7,0.2-2.5,0.2
		C153.1,106.8,142.7,106.8,132.2,106.8C132.2,106.8,132.2,106.8,132.2,106.8z"/>
	<path class="st0" d="M78.6,55c-9.8,0-19.7,0-29.5,0c-0.9,0-1.9,0-2.7-0.3c-1.6-0.5-2.6-1.8-2.3-3.4c0.3-1.2,1.2-2.5,2.1-3.3
		c0.6-0.5,1.9-0.4,2.9-0.4c19.7,0,39.3,0,59,0c3.7,0,5.6,1.3,5.5,3.8c-0.1,2.4-1.9,3.6-5.5,3.6C98.2,55,88.4,55,78.6,55z"/>
	<path class="st0" d="M143.3,47.6c7,0,14,0,21,0c2.9,0,4.5,1.3,4.6,3.6c0,1.8-0.9,3.1-2.7,3.6c-0.9,0.2-1.8,0.3-2.7,0.3
		c-13.5,0-27,0-40.5,0c-3.6,0-5.4-1.2-5.5-3.6c-0.1-2.5,1.8-3.8,5.5-3.8C129.7,47.6,136.5,47.6,143.3,47.6
		C143.3,47.6,143.3,47.6,143.3,47.6z"/>
	<path class="st0" d="M67.9,106.8c-6.2,0-12.4,0-18.6,0c-0.8,0-1.7,0-2.5-0.2c-1.7-0.3-2.7-1.5-2.8-3.2c-0.1-1.8,0.8-3.1,2.6-3.7
		c0.8-0.2,1.7-0.3,2.5-0.3c12.7,0,25.4,0,38.1,0c0.7,0,1.4,0,2.1,0.2c1.9,0.4,3.2,2,3,3.7c-0.2,1.9-1.2,3.2-3.2,3.4
		c-1.9,0.2-3.8,0.1-5.7,0.2C78.3,106.8,73.1,106.8,67.9,106.8z"/>
	<path class="st0" d="M131.1,169.5c-0.3,0.5-0.9,1.9-1.8,2.3c-6,2.2-9.5,7.2-13,12c-1.4,2-2.4,4.3-3.5,6.5c-0.9,1.8-2.6,2.8-4.5,2.3
		c-1.8-0.5-3.2-2.4-2.5-4.3c0.8-2.4,1.8-5,3.3-7c3.1-4.2,6.4-8.2,10.1-11.9c1.9-1.9,4.7-3.1,7.2-4.1
		C128.8,164.4,131.1,166.3,131.1,169.5z"/>
	<path class="st0" d="M151.8,89.5c-4,0-8.1,0-12.1,0c-0.9,0-1.9-0.1-2.7-0.4c-1.6-0.6-2.4-2-2.2-3.7c0.2-1.6,1.1-2.7,2.8-3.1
		c0.7-0.2,1.4-0.2,2.1-0.2c8.1,0,16.1,0,24.2,0c1,0,2.2,0.1,3.1,0.5c1.7,0.8,2.2,2.3,1.8,4.1c-0.5,1.9-2,2.7-3.8,2.7
		C160.5,89.6,156.2,89.5,151.8,89.5z"/>
</g>
</svg>
