<?xml version="1.0" encoding="utf-8"?>
<!-- Generator: Adobe Illustrator 19.0.1, SVG Export Plug-In . SVG Version: 6.00 Build 0)  -->
<svg version="1.1"
	 id="svg2985" xmlns:dc="http://purl.org/dc/elements/1.1/" xmlns:cc="http://creativecommons.org/ns#" xmlns:rdf="http://www.w3.org/1999/02/22-rdf-syntax-ns#"
	 xmlns="http://www.w3.org/2000/svg" xmlns:xlink="http://www.w3.org/1999/xlink" x="0px" y="0px" viewBox="632.5 286 993.5 227.7"
	 style="enable-background:new 632.5 286 993.5 227.7;" xml:space="preserve">
<style type="text/css">
	.st0{fill:#002D62;}
</style>
<path id="path3363" class="st0" d="M632.5,513.7h229.3V286H632.5V513.7L632.5,513.7z M779.5,303.4c40.6,13.2,69.8,51.3,69.9,96.4
	c0.1,44.4-28.6,82.4-69.9,96.5V303.4L779.5,303.4z M747.1,298.2c7.3,0,15.1,0.9,21.6,2.3c0,51.6-50.3,94-102.1,94h-21.7
	C648.5,341.6,692.6,298.2,747.1,298.2 M666.6,405.2c51.9,0,102.1,42.4,102.1,94c-6.5,1.3-14.7,2.3-21.6,2.3
	c-54.6-0.1-100.1-43.6-102.2-96.3H666.6z"/>
<path id="path3365" class="st0" d="M938.6,419.8v-14.3h47.7v-18.3h-47.7v-26.6h50.8v-18.2h-70.3v76.8c0,19.4,8.3,32.7,27.8,35.4
	c0.4,0.1,0.8,0.1,1.1,0.1h0.4c2,0.2,4,0.4,6.2,0.4h36.1v-18.2h-36C948.5,436.7,938.6,433.7,938.6,419.8"/>
<path id="path3367" class="st0" d="M1004.6,395.5V455h19.6V342.3h-19.6V395.5z"/>
<path id="path3369" class="st0" d="M1080.2,370.9c-24.7,0-43.2,16.9-43.2,43.2v0.7c0,25.7,17.9,42.3,43.7,42.3
	c12.4,0,24-3.4,34.7-14.6l-11.8-11.4c-6.2,6.2-12.3,9.4-22.3,9.4c-14.5,0-24.2-8.4-24.8-21.4h64.1c0.3-3.2,0.3-6.8,0.3-6.8
	C1120.9,389.2,1104.7,370.9,1080.2,370.9 M1056.9,405.3c0.9-9.9,11-17.9,23.2-17.9c11.5,0,20.8,8.1,20.8,17.9H1056.9z"/>
<path id="path3371" class="st0" d="M1175.9,388.3c8.8,0,15.3,3.2,20.9,8.9l12.1-12.5c-9.5-10-20.8-14.1-33-14.1
	c-24.9,0-44.9,18.3-44.9,43.3s19.9,43.4,44.8,43.4c12.2,0,23.5-4.1,33-14.2l-12.1-12.5c-5.6,5.7-12.1,9-20.9,9
	c-14.4,0-25.4-10.9-25.4-25.7C1150.5,399.2,1161.4,388.3,1175.9,388.3"/>
<path id="path3373" class="st0" d="M1240.6,419.8v-28.7h17.8v-17.7h-17.7v-31.2h-19.6V421c0.6,18.3,8.9,30.8,27.8,33.4
	c0.4,0.1,0.8,0.2,1.2,0.2h0.3c2,0.2,4.1,0.4,6.2,0.4h2.1v-18.2h-2C1250.5,436.7,1240.6,433.7,1240.6,419.8"/>
<path id="path3375" class="st0" d="M1294.2,385.6v-12.1h-19.4V455h19.4v-42.9c0-13.4,8.6-21.9,22.1-21.9c3.1,0,5.9,0.3,8.1,0.8
	v-18.8c-0.8-0.2-3.7-0.5-5.8-0.5C1306.9,371.8,1298.1,377.2,1294.2,385.6"/>
<path id="path3377" class="st0" d="M1372.2,371c-24.9,0-44.8,18.8-44.8,43.2s19.8,43.2,44.8,43.2c24.7,0,44.8-18.8,44.8-43.2
	S1397,371,1372.2,371 M1372.2,439.8c-14.5,0-25.4-11.2-25.4-25.6s10.9-25.6,25.4-25.6c14.4,0,25.4,11.2,25.4,25.6
	S1386.6,439.8,1372.2,439.8"/>
<path id="path3379" class="st0" d="M1429,393.5v61.4h19.6V342.2H1429V393.5z"/>
<path id="path3381" class="st0" d="M1519.1,420.8c0,12.9-7.6,18.4-17.9,18.4c-10.2,0-17.9-5.5-17.9-18.2v-47.6h-19.7v49.2
	c0,23.3,17.1,34.5,37.4,34.5c20.5,0,37.8-11.3,37.8-34.9v-25.1v-23.6h-19.7V420.8L1519.1,420.8z"/>
<path id="path3383" class="st0" d="M1612.7,428.9l-12.3-17.1l15.3-20.6l13-17.7h-21.3l-17.8,24.4l-17.9-24.4h-21.2l12.1,16.5
	l16.2,22l-17,23.5l-14.1,19.6h21l20.8-28.8l20.9,28.8h21L1612.7,428.9L1612.7,428.9z"/>
</svg>
