<?xml version="1.0" encoding="utf-8"?>
<!-- Generator: Adobe Illustrator 19.0.1, SVG Export Plug-In . SVG Version: 6.00 Build 0)  -->
<svg version="1.1" id="Layer_1" xmlns="http://www.w3.org/2000/svg" xmlns:xlink="http://www.w3.org/1999/xlink" x="0px" y="0px"
	 viewBox="-6 -1 36 67" style="enable-background:new -6 -1 36 67;" xml:space="preserve">
<style type="text/css">
	.st0{fill:#FFFFFF;}
</style>
<path class="st0" d="M25,61.6c0.6-1.2,9.7-19.8,2.4-37.2C22.4,12.7,11.3,4.2-5.9-1l-0.3,1c16.9,5,27.8,13.4,32.7,24.9
	c7.1,16.9-1.7,35-2.3,36.3l-1.8-0.9h-0.1c0,0,0,0-0.1,0.1v0.1V66c0,0.1,0,0.1,0.1,0.1h0.1l4.6-3l0.1-0.1c0-0.1,0-0.1-0.1-0.1
	L25,61.6z"/>
</svg>
