<?xml version="1.0" encoding="utf-8"?>
<!-- Generator: Adobe Illustrator 19.0.1, SVG Export Plug-In . SVG Version: 6.00 Build 0)  -->
<svg version="1.1" id="Слой_1" xmlns="http://www.w3.org/2000/svg" xmlns:xlink="http://www.w3.org/1999/xlink" x="0px" y="0px"
	 viewBox="207 -199 463 463" style="enable-background:new 207 -199 463 463;" xml:space="preserve">
<style type="text/css">
	.st0{fill:#FFFFFF;}
</style>
<g>
	<path class="st0" d="M669.7,182.1c-1.5-11.1-7.9-20.7-17.6-26.3L537.8,90c-14-8.1-31.7-5.7-43.2,5.7l-22.5,22.5
		c-6,6-15.5,6.5-22,1.2c-17.7-14.3-35.2-30-51.9-46.7c-16.7-16.7-32.4-34.2-46.7-51.9c-5.3-6.6-4.8-16,1.2-22l22.5-22.5
		c11.4-11.4,13.8-29.2,5.7-43.2l-65.8-114.2c-5.6-9.7-15.2-16.1-26.3-17.6c-11.1-1.5-22.1,2.2-30,10.2L225-154.6
		C201.4-131,201-87.7,224-32.7C246,20.1,287.3,78.2,340,131c52.8,52.8,110.9,94,163.7,116.1c27,11.3,51.3,17,71.7,17
		c21.1,0,38.2-6,50.2-18l33.9-33.9C667.5,204.1,671.2,193.2,669.7,182.1L669.7,182.1z M530.4,103l114.2,65.8
		c5.6,3.3,9.4,8.8,10.2,15.3c0.7,5.4-0.7,10.8-3.9,15.1l-151.8-86.6l6.2-6.2C511.9,99.7,522.2,98.3,530.4,103L530.4,103z M287-183.8
		c6.5,0.9,12,4.6,15.3,10.2L368-59.4c4.7,8.1,3.3,18.4-3.3,25.1l-5.7,5.7l-87.1-151.3c3.6-2.6,7.8-4.1,12.3-4.1
		C285.1-184,286-183.9,287-183.8L287-183.8z M615,235.4c-18.8,18.8-57.2,18-105.5-2.2c-51.1-21.4-107.5-61.4-158.9-112.8
		C299.2,69,259.1,12.5,237.8-38.5c-20.2-48.2-21-86.7-2.2-105.5l25.2-25.2L348-17.6l-5.9,5.9c-11.4,11.4-12.4,29.5-2.3,42
		c14.6,18.2,30.7,36,47.8,53.1c17.1,17.1,35,33.2,53.1,47.8c12.6,10.1,30.6,9.1,42-2.3l5.3-5.3l152,86.8L615,235.4L615,235.4z"/>
</g>
</svg>
