<?xml version="1.0" encoding="utf-8"?>
<!-- Generator: Adobe Illustrator 19.0.1, SVG Export Plug-In . SVG Version: 6.00 Build 0)  -->
<svg version="1.1" id="Слой_1" xmlns="http://www.w3.org/2000/svg" xmlns:xlink="http://www.w3.org/1999/xlink" x="0px" y="0px"
	 viewBox="407.3 -131.4 326.8 328.8" style="enable-background:new 407.3 -131.4 326.8 328.8;" xml:space="preserve">
<style type="text/css">
	.st0{fill:#FFFFFF;}
</style>
<g>
	<path class="st0" d="M453.4-131.4c13.1,7.6,26.2,15.2,39.3,22.7c3,1.7,4.4,3.8,4.4,7.4c-0.2,14.2-0.1,28.4,0,42.6
		c0,3.2-1.2,5.1-3.9,6.7c-12.4,7.1-24.8,14.2-37.1,21.5c-2.7,1.6-5,1.6-7.7,0c-12.3-7.2-24.7-14.4-37.2-21.4c-2.9-1.6-4-3.7-4-7
		c0.1-14.2,0.1-28.4,0-42.6c0-3.3,1.2-5.3,4.1-6.9c13.2-7.5,26.4-15.3,39.6-22.9C451.7-131.4,452.6-131.4,453.4-131.4z M488.8-80.2
		L488.8-80.2c0-6.2,0-12.4,0.1-18.6c0-1.8-0.4-2.9-2.1-3.8c-11-6.2-21.8-12.6-32.8-18.8c-0.9-0.5-2.7-0.5-3.7,0
		c-11,6.2-21.9,12.5-32.7,18.9c-1,0.6-2,2.2-2,3.4c-0.1,12.6-0.2,25.2,0,37.8c0,1.2,1,2.8,2,3.4c10.8,6.4,21.8,12.7,32.7,18.9
		c0.9,0.5,2.7,0.5,3.6,0c11-6.2,21.9-12.5,32.7-18.9c1-0.6,1.9-2.2,2-3.4C488.9-67.6,488.8-73.9,488.8-80.2z"/>
	<path class="st0" d="M614.8,73.3c4.2,4.2,8.2,8.1,12.2,12.1c3.1,3.1,3.1,4.9,0,8.1c-3.1,3.2-6.3,6.4-9.5,9.5
		c-4.4,4.3-8.6,4.6-13.4,1.1c-4.3-3.1-7.6-2.6-11.3,1.8c-2.8,3.3-2.5,6.1,1.1,9.8c0.8,0.8,1.5,1.5,2.3,2.3c1.9,2.1,2,4.2,0.1,6.3
		c-0.3,0.4-0.7,0.8-1.1,1.1c-19.1,19.1-38.2,38.3-57.4,57.3c-14.6,14.5-35.9,16-51.9,4c-17.9-13.5-20.7-40.2-5.6-56.8
		c8.6-9.5,18-18.3,27-27.4c10.6-10.6,21.2-21.2,31.7-31.7c4.3-4.3,5.7-4.3,10,0c4.7,4.7,8.2,4.6,12.3-0.4c2.4-2.9,2.5-5.5,0.3-8.7
		c-4.2-5.9-3.9-9.5,1.2-14.6c2.8-2.8,5.6-5.6,8.4-8.4c3.8-3.8,5.4-3.8,9.1-0.1c3.8,3.8,7.5,7.6,11.5,11.6c0.9-0.8,1.7-1.5,2.4-2.2
		c26.8-26.7,53.5-53.5,80.3-80.2c1.6-1.6,2.2-3,2-5.3c-0.4-5.5,1.9-10.2,5.8-14.1c4.9-5,9.9-10,15-15c2.9-2.8,4.7-2.8,7.6,0.1
		c8.9,8.9,17.9,17.8,26.8,26.7c3.1,3.1,3.1,4.8,0.1,7.9c-5,5-9.9,10-15,15c-4.3,4.2-9.3,6.3-15.4,5.6c-0.9-0.1-2.1,0.4-2.8,1
		C670.6,17.4,642.9,45.2,614.8,73.3z M587.3,121.8C572.5,107,558.1,92.5,543.5,78c0,0-0.3,0.1-0.5,0.4c-18.4,18.3-36.8,36.6-55,55.1
		c-7.1,7.2-10.5,15.9-9.1,26.2c1.6,11.8,8.1,20.2,19,24.6c10.9,4.4,22,3.5,30.6-4.6C548.5,160.7,567.8,141,587.3,121.8z M680.7-25.8
		c-27.6,27.6-55,55-82,82c3.3,3.4,6.9,7.1,9.9,10.3c27.4-27.4,54.8-54.8,82.2-82.2C687.5-19,684-22.6,680.7-25.8z M700.7-58.3
		c-4.6,4.5-9.4,8.9-13.9,13.6c-3.5,3.8-3.5,9.1-0.1,12.8c3.2,3.6,6.6,7,10.2,10.2c3.2,2.9,8.1,3.7,11.2,0.9
		c5.3-4.8,9.9-10.4,14.7-15.5C715.7-43.3,708.3-50.7,700.7-58.3z M566.8,55.2c0.7,0.8,1.4,1.5,2.1,2.3c4,4,8,8,12,12
		c9.1,9.1,18.1,18.1,27.2,27.2c0.9,0.9,1.7,2.4,3.4,0.8c2.7-2.6,5.4-5,7.8-7.3c-15-15-29.5-29.4-43.5-43.4
		C573,49.4,570,52.2,566.8,55.2z M593.4,94.3c-7.4-7.3-15.2-15.2-22.6-22.5c-3.3,3.4-6.8,6.9-10.1,10.3c7.3,7.3,15,15.1,22.3,22.4
		C586.4,101.1,589.9,97.7,593.4,94.3z"/>
	<path class="st0" d="M555.7-43.1c1-1.3,1.6-2.3,2.4-3.1c26.9-26.9,53.8-53.8,80.7-80.7c4.3-4.3,5.5-4.3,9.7-0.1
		c4.6,4.6,9.2,9.2,13.8,13.8c3.6,3.6,3.6,5.2,0,8.8c-27.2,27.2-54.4,54.4-81.6,81.6c-0.7,0.7-1.5,1.2-2.6,2.1
		c3.6,3.6,6.9,6.9,10.2,10.2c1,1,2,1.9,2.9,3c2.1,2.3,2.1,4.4-0.1,6.8c-3.5,3.6-7,7.2-10.7,10.7c-4,3.8-8.2,4-12.7,0.8
		c-3.9-2.8-6.6-2.9-9.8-0.1c-4.7,4.1-4.8,7.4-0.4,11.8c4.7,4.7,4.7,5.7,0,10.4c-27.5,27.5-55,55-82.5,82.5
		c-13.9,13.9-33.5,16.4-49.5,6.5c-20-12.4-24.4-40.5-9-58.4c1.3-1.5,2.6-2.9,3.9-4.2c27.3-27.4,54.7-54.7,82-82
		c4.3-4.3,5.5-4.3,9.9,0.1c4.7,4.7,8.4,4.5,12.5-0.7c2.1-2.7,2.4-5.5,0.1-8.2c-4.1-4.7-4-10.4,1.4-15.2c2.9-2.6,5.6-5.6,8.4-8.3
		c3.5-3.4,5.2-3.5,8.6-0.1C547.4-51.5,551.2-47.6,555.7-43.1z M507.2-15.8c-0.5,0.5-1.2,1.1-1.9,1.8c-26.5,26.5-53,53-79.5,79.5
		c-1.1,1.1-2.1,2.1-3,3.3c-14,16.7-6.3,42.9,14.6,49.1c12.5,3.7,23.2,0.3,32.2-8.7c26.6-26.6,53.2-53.2,79.8-79.8
		c0.6-0.6,1.1-1.2,1.5-1.6C536.2,13.3,521.8-1.1,507.2-15.8z M643.9-119.2c-27.2,27.2-54.6,54.7-81.8,81.9c3.2,3.3,6.8,7,10,10.3
		c27.5-27.5,54.9-54.9,82.1-82.1C650.8-112.4,647.1-116,643.9-119.2z M582.3-4.1c-14.3-14.3-28.8-28.8-42.7-42.8
		c-2.9,2.7-5.9,5.6-8.4,8.1c14.2,14.2,28.6,28.6,42.9,42.8C576.7,1.5,579.6-1.4,582.3-4.1z M534.4-21.8c-3.5,3.4-6.9,6.9-10,9.9
		c7.3,7.4,15,15.2,22.2,22.5c3.4-3.3,6.9-6.7,10.3-10C549.6-6.7,541.8-14.5,534.4-21.8z"/>
	<path class="st0" d="M665.8,197.4c-1.3-0.9-3-1.5-4-2.7c-9.3-12-18.6-24-27.7-36.1c-1-1.3-1.2-4-0.6-5.6
		c5.5-13.9,11.3-27.7,17-41.5c0.9-2.1,2.3-3.4,4.7-3.7c14.5-1.9,29-3.8,43.5-5.8c3.2-0.4,5.4,0.4,7.4,3.1
		c8.6,11.3,17.2,22.6,26,33.8c2,2.6,2.4,4.9,1,7.9c-5.6,13.2-11,26.4-16.4,39.6c-1.1,2.6-2.6,4.2-5.5,4.6
		c-14.8,1.9-29.6,3.9-44.4,5.9c-0.2,0-0.4,0-0.6,0.1C666,197,665.9,197.2,665.8,197.4z M668.6,188.3c13.4-1.8,25.6-3.4,37.8-4.9
		c2.1-0.3,3.3-1.1,4.2-3.2c4.6-11.4,9.3-22.7,14-34c0.8-1.8,0.5-3.1-0.7-4.6c-7.5-9.7-15.1-19.4-22.4-29.2c-1.4-1.9-2.8-2.2-4.9-1.9
		c-12.2,1.7-24.3,3.4-36.5,4.9c-1.9,0.2-2.8,1-3.4,2.6c-4.7,11.6-9.4,23.1-14.3,34.6c-0.7,1.7-0.5,2.9,0.6,4.3
		c7.6,9.8,15.1,19.6,22.7,29.4C666.6,187.4,668.1,187.9,668.6,188.3z"/>
	<path class="st0" d="M475.3-80.3c0.1,12.9-10.4,23.6-23.4,23.9c-12.8,0.2-24-10.8-23.9-23.8c0-12.9,10.7-23.6,23.7-23.6
		C464.7-103.8,475.3-93.3,475.3-80.3z M451.9-64.7c8.5-0.1,15.4-7.1,15.3-15.6c-0.1-8.6-7-15.4-15.6-15.3
		c-8.5,0.1-15.5,7.1-15.4,15.6C436.3-71.6,443.4-64.6,451.9-64.7z"/>
	<path class="st0" d="M511.6,158.5c-4,0-5.9-3.2-4.4-5.9c0.5-0.8,1.1-1.5,1.8-2.2c13.7-13.8,27.5-27.5,41.3-41.3
		c0.5-0.5,0.9-0.9,1.4-1.3c1.8-1.5,3.8-1.6,5.5,0.1c1.9,1.8,1.7,3.8,0.1,5.7c-0.5,0.6-1,1.1-1.5,1.6c-13.5,13.5-27,27.1-40.6,40.6
		C513.9,157,512.4,157.9,511.6,158.5z"/>
	<path class="st0" d="M522,17.8c-0.6,0.8-1.5,2.4-2.7,3.6c-10.5,10.5-21,21-31.5,31.5c-11.8,11.8-23.6,23.6-35.3,35.3
		c-0.8,0.8-1.5,1.6-2.3,2.2c-1.9,1.4-4.2,1.5-5.4-0.4c-0.8-1.3-0.4-3.5-0.2-5.2c0.1-0.7,1.1-1.3,1.7-1.9
		c22.4-22.4,44.8-44.9,67.3-67.3c0.8-0.8,1.7-1.7,2.7-2.2C518.8,12.1,521.9,14,522,17.8z"/>
	<path class="st0" d="M659,148.7c0.4-13.6,11.4-24,24.7-23.6c13.1,0.4,23.9,11.7,23.3,24.4c-0.6,13.5-11.4,24-24.5,23.6
		C669.3,172.8,658.7,161.8,659,148.7z M683,164.9c8.8,0,16-7.2,15.9-15.9c0-8.7-7.3-15.8-16.1-15.7c-8.6,0-15.7,7-15.8,15.7
		C667,157.6,674.3,164.9,683,164.9z"/>
</g>
</svg>
