<?xml version="1.0" encoding="utf-8"?>
<!-- Generator: Adobe Illustrator 19.0.1, SVG Export Plug-In . SVG Version: 6.00 Build 0)  -->
<svg version="1.1" id="Layer_1" xmlns="http://www.w3.org/2000/svg" xmlns:xlink="http://www.w3.org/1999/xlink" x="0px" y="0px"
	 viewBox="-49 141 512 512" style="enable-background:new -49 141 512 512;" xml:space="preserve">
<style type="text/css">
	.st0{fill:#0596F7;}
</style>
<g>
	<path class="st0" d="M207,151C71.3,151-39,261.3-39,397c0,135.6,110.3,246,246,246c135.6,0,246-110.4,246-246
		C453,261.3,342.6,151,207,151z M207,613.5C87.7,613.5-9.5,516.3-9.5,397S87.7,180.5,207,180.5S423.5,277.7,423.5,397
		S326.3,613.5,207,613.5z"/>
</g>
<g>
	<polygon class="st0" points="317.7,340.2 174,484 88,398 108.9,377.1 174,442.2 296.8,319.3 	"/>
</g>
</svg>
